<svg width="14" height="12" viewBox="0 0 14 12" fill="none" xmlns="http://www.w3.org/2000/svg">
<path fill-rule="evenodd" clip-rule="evenodd" d="M7.37558 1.49377C7.33671 1.43019 7.28169 1.37756 7.21586 1.34101C7.15004 1.30447 7.07566 1.28526 7 1.28526C6.92434 1.28526 6.84996 1.30447 6.78414 1.34101C6.71831 1.37756 6.66329 1.43019 6.62442 1.49377L1.37945 10.0656C1.33964 10.1307 1.31817 10.2049 1.31723 10.2808C1.31629 10.3566 1.33591 10.4314 1.3741 10.4974C1.41229 10.5633 1.46767 10.6182 1.53459 10.6564C1.60151 10.6946 1.67758 10.7147 1.75503 10.7147H12.2467C12.3242 10.7149 12.4004 10.6949 12.4675 10.6567C12.5345 10.6186 12.59 10.5637 12.6283 10.4977C12.6666 10.4317 12.6863 10.3569 12.6854 10.281C12.6845 10.2051 12.663 10.1307 12.6232 10.0656L7.37558 1.49377ZM5.49856 0.83354C6.17705 -0.277704 7.82207 -0.277704 8.50144 0.832683L13.7482 9.40367C14.4477 10.5466 13.6072 12 12.2458 12H1.75415C0.392787 12.0009 -0.447669 10.5475 0.251835 9.40453L5.49856 0.83354ZM7.87548 8.99981C7.87548 9.22722 7.78324 9.44531 7.61905 9.60612C7.45487 9.76692 7.23219 9.85725 7 9.85725C6.76781 9.85725 6.54513 9.76692 6.38095 9.60612C6.21676 9.44531 6.12452 9.22722 6.12452 8.99981C6.12452 8.7724 6.21676 8.55431 6.38095 8.39351C6.54513 8.23271 6.76781 8.14237 7 8.14237C7.23219 8.14237 7.45487 8.23271 7.61905 8.39351C7.78324 8.55431 7.87548 8.7724 7.87548 8.99981ZM7.65661 4.06952C7.65661 3.89897 7.58743 3.7354 7.46429 3.6148C7.34115 3.4942 7.17414 3.42644 7 3.42644C6.82586 3.42644 6.65885 3.4942 6.53571 3.6148C6.41257 3.7354 6.34339 3.89897 6.34339 4.06952V6.64185C6.34339 6.8124 6.41257 6.97597 6.53571 7.09658C6.65885 7.21718 6.82586 7.28493 7 7.28493C7.17414 7.28493 7.34115 7.21718 7.46429 7.09658C7.58743 6.97597 7.65661 6.8124 7.65661 6.64185V4.06952Z" fill="white"/>
</svg>
