<svg width="68" height="68" viewBox="0 0 68 68" fill="none" xmlns="http://www.w3.org/2000/svg">
<g filter="url(#filter0_d_380_277)">
<rect x="18" y="18" width="32" height="32" rx="16" fill="url(#paint0_linear_380_277)"/>
<rect x="18.5" y="18.5" width="31" height="31" rx="15.5" stroke="#346FC9"/>
<path d="M40.2287 31.7259L28.3785 28.0436C28.2181 27.9962 28.049 27.9873 27.8846 28.0175C27.7202 28.0478 27.565 28.1163 27.4313 28.2178C27.2976 28.3193 27.189 28.4509 27.1141 28.6022C27.0393 28.7535 27.0002 28.9204 27 29.0897V38.909C27 39.1983 27.1135 39.4758 27.3154 39.6804C27.5174 39.8851 27.7913 40 28.0769 40C28.1799 40 28.2824 39.9851 28.3812 39.9557L34 38.2087V38.909C34 39.1983 34.1135 39.4758 34.3154 39.6804C34.5174 39.8851 34.7913 40 35.0769 40H37.2308C37.5164 40 37.7903 39.8851 37.9923 39.6804C38.1942 39.4758 38.3077 39.1983 38.3077 38.909V36.8701L40.2287 36.2734C40.451 36.2058 40.646 36.0675 40.7848 35.879C40.9237 35.6906 40.9991 35.4619 41 35.2267V32.7719C40.999 32.5368 40.9235 32.3083 40.7846 32.12C40.6458 31.9317 40.4509 31.7935 40.2287 31.7259ZM34 37.0678L28.0769 38.909V29.0897L34 30.9308V37.0678ZM37.2308 38.909H35.0769V37.8738L37.2308 37.2042V38.909ZM39.9231 35.2267H39.9157L35.0769 36.7324V31.2663L39.9157 32.7665H39.9231V35.2213V35.2267Z" fill="white"/>
</g>
<defs>
<filter id="filter0_d_380_277" x="0.299999" y="0.299999" width="67.4" height="67.4" filterUnits="userSpaceOnUse" color-interpolation-filters="sRGB">
<feFlood flood-opacity="0" result="BackgroundImageFix"/>
<feColorMatrix in="SourceAlpha" type="matrix" values="0 0 0 0 0 0 0 0 0 0 0 0 0 0 0 0 0 0 127 0" result="hardAlpha"/>
<feOffset/>
<feGaussianBlur stdDeviation="8.85"/>
<feComposite in2="hardAlpha" operator="out"/>
<feColorMatrix type="matrix" values="0 0 0 0 0.203922 0 0 0 0 0.435294 0 0 0 0 0.788235 0 0 0 0.45 0"/>
<feBlend mode="normal" in2="BackgroundImageFix" result="effect1_dropShadow_380_277"/>
<feBlend mode="normal" in="SourceGraphic" in2="effect1_dropShadow_380_277" result="shape"/>
</filter>
<linearGradient id="paint0_linear_380_277" x1="29.8885" y1="50" x2="41.8757" y2="20.7843" gradientUnits="userSpaceOnUse">
<stop stop-color="#123B79"/>
<stop offset="1" stop-color="#346FC9"/>
</linearGradient>
</defs>
</svg>
