<svg width="14" height="15" viewBox="0 0 14 15" fill="none" xmlns="http://www.w3.org/2000/svg">
<path d="M12.6284 12.0937C11.7955 10.6538 10.512 9.62132 9.01414 9.13187C9.75506 8.69079 10.3307 8.01869 10.6527 7.21879C10.9747 6.41888 11.0252 5.5354 10.7964 4.70402C10.5677 3.87263 10.0724 3.13932 9.38654 2.61669C8.70071 2.09405 7.86227 1.811 7 1.811C6.13772 1.811 5.29928 2.09405 4.61345 2.61669C3.92761 3.13932 3.43229 3.87263 3.20356 4.70402C2.97482 5.5354 3.02532 6.41888 3.3473 7.21879C3.66928 8.01869 4.24493 8.69079 4.98585 9.13187C3.48796 9.62077 2.20445 10.6533 1.37156 12.0937C1.34101 12.1435 1.32076 12.199 1.31198 12.2567C1.3032 12.3145 1.30607 12.3734 1.32044 12.43C1.3348 12.4867 1.36037 12.5399 1.39562 12.5864C1.43087 12.633 1.47509 12.6721 1.52568 12.7013C1.57627 12.7305 1.6322 12.7493 1.69017 12.7566C1.74814 12.7638 1.80698 12.7594 1.86321 12.7436C1.91944 12.7277 1.97193 12.7008 2.01757 12.6643C2.06322 12.6278 2.1011 12.5826 2.12898 12.5312C3.15929 10.7506 4.98039 9.68749 7 9.68749C9.0196 9.68749 10.8407 10.7506 11.871 12.5312C11.8989 12.5826 11.9368 12.6278 11.9824 12.6643C12.0281 12.7008 12.0805 12.7277 12.1368 12.7436C12.193 12.7594 12.2518 12.7638 12.3098 12.7566C12.3678 12.7493 12.4237 12.7305 12.4743 12.7013C12.5249 12.6721 12.5691 12.633 12.6044 12.5864C12.6396 12.5399 12.6652 12.4867 12.6796 12.43C12.6939 12.3734 12.6968 12.3145 12.688 12.2567C12.6792 12.199 12.659 12.1435 12.6284 12.0937ZM3.9375 5.74999C3.9375 5.14429 4.11711 4.55218 4.45362 4.04856C4.79013 3.54493 5.26843 3.1524 5.82803 2.92061C6.38763 2.68882 7.00339 2.62817 7.59746 2.74634C8.19153 2.8645 8.73721 3.15618 9.16551 3.58448C9.59381 4.01278 9.88548 4.55846 10.0036 5.15253C10.1218 5.7466 10.0612 6.36236 9.82938 6.92196C9.59758 7.48156 9.20505 7.95986 8.70143 8.29637C8.1978 8.63288 7.6057 8.81249 7 8.81249C6.18804 8.81162 5.40958 8.48869 4.83544 7.91455C4.2613 7.34041 3.93836 6.56195 3.9375 5.74999Z" fill="white" fill-opacity="0.5"/>
</svg>
