<svg width="122" height="26" viewBox="0 0 122 26" fill="none" xmlns="http://www.w3.org/2000/svg">
<g filter="url(#filter0_d_61_79)">
<path d="M13 9.00001C12.2208 9.00001 11.5538 8.72258 10.999 8.16772C10.4441 7.61286 10.1667 6.94584 10.1667 6.16668C10.1667 5.38751 10.4441 4.7205 10.999 4.16564C11.5538 3.61077 12.2208 3.33334 13 3.33334C13.7792 3.33334 14.4462 3.61077 15.0011 4.16564C15.5559 4.7205 15.8333 5.38751 15.8333 6.16668C15.8333 6.94584 15.5559 7.61286 15.0011 8.16772C14.4462 8.72258 13.7792 9.00001 13 9.00001ZM7.33334 14.6667V12.6833C7.33334 12.282 7.43676 11.9131 7.64359 11.5769C7.85043 11.2407 8.12479 10.9838 8.46668 10.8063C9.19862 10.4403 9.94237 10.1659 10.6979 9.98318C11.4535 9.80043 12.2208 9.70882 13 9.70834C13.7792 9.70787 14.5465 9.79948 15.3021 9.98318C16.0576 10.1669 16.8014 10.4412 17.5333 10.8063C17.8757 10.9833 18.1503 11.2402 18.3571 11.5769C18.564 11.9136 18.6671 12.2824 18.6667 12.6833V14.6667H7.33334Z" fill="#17A2F1"/>
<path d="M39.544 5.08V13H37.72V9.364L37.78 6.928H37.756L35.8 13H34.132L32.176 6.928H32.152L32.212 9.364V13H30.376V5.08H33.316L34.564 9.112L35.008 10.792H35.032L35.488 9.124L36.724 5.08H39.544ZM44.8499 4.96C45.6499 4.96 46.3379 5.124 46.9139 5.452C47.4979 5.772 47.9459 6.236 48.2579 6.844C48.5699 7.452 48.7259 8.184 48.7259 9.04C48.7259 9.896 48.5699 10.628 48.2579 11.236C47.9459 11.844 47.4979 12.312 46.9139 12.64C46.3379 12.96 45.6499 13.12 44.8499 13.12C44.0499 13.12 43.3579 12.96 42.7739 12.64C42.1899 12.312 41.7419 11.844 41.4299 11.236C41.1179 10.628 40.9619 9.896 40.9619 9.04C40.9619 8.184 41.1179 7.452 41.4299 6.844C41.7419 6.236 42.1899 5.772 42.7739 5.452C43.3579 5.124 44.0499 4.96 44.8499 4.96ZM44.8499 6.58C44.4659 6.58 44.1419 6.672 43.8779 6.856C43.6139 7.04 43.4139 7.316 43.2779 7.684C43.1419 8.044 43.0739 8.496 43.0739 9.04C43.0739 9.576 43.1419 10.028 43.2779 10.396C43.4139 10.764 43.6139 11.04 43.8779 11.224C44.1419 11.408 44.4659 11.5 44.8499 11.5C45.2339 11.5 45.5539 11.408 45.8099 11.224C46.0739 11.04 46.2739 10.764 46.4099 10.396C46.5459 10.028 46.6139 9.576 46.6139 9.04C46.6139 8.496 46.5459 8.044 46.4099 7.684C46.2739 7.316 46.0739 7.04 45.8099 6.856C45.5539 6.672 45.2339 6.58 44.8499 6.58ZM53.5055 5.08C54.7455 5.08 55.6935 5.424 56.3495 6.112C57.0135 6.8 57.3455 7.776 57.3455 9.04C57.3455 10.304 57.0135 11.28 56.3495 11.968C55.6935 12.656 54.7455 13 53.5055 13H50.1455V5.08H53.5055ZM53.3015 11.44C53.9735 11.44 54.4615 11.24 54.7655 10.84C55.0775 10.432 55.2335 9.832 55.2335 9.04C55.2335 8.248 55.0775 7.652 54.7655 7.252C54.4615 6.844 53.9735 6.64 53.3015 6.64H52.2095V11.44H53.3015ZM62.3108 4.96C63.1108 4.96 63.7988 5.124 64.3748 5.452C64.9588 5.772 65.4068 6.236 65.7188 6.844C66.0308 7.452 66.1868 8.184 66.1868 9.04C66.1868 9.896 66.0308 10.628 65.7188 11.236C65.4068 11.844 64.9588 12.312 64.3748 12.64C63.7988 12.96 63.1108 13.12 62.3108 13.12C61.5108 13.12 60.8188 12.96 60.2348 12.64C59.6508 12.312 59.2028 11.844 58.8908 11.236C58.5788 10.628 58.4228 9.896 58.4228 9.04C58.4228 8.184 58.5788 7.452 58.8908 6.844C59.2028 6.236 59.6508 5.772 60.2348 5.452C60.8188 5.124 61.5108 4.96 62.3108 4.96ZM62.3108 6.58C61.9268 6.58 61.6028 6.672 61.3388 6.856C61.0748 7.04 60.8748 7.316 60.7388 7.684C60.6028 8.044 60.5348 8.496 60.5348 9.04C60.5348 9.576 60.6028 10.028 60.7388 10.396C60.8748 10.764 61.0748 11.04 61.3388 11.224C61.6028 11.408 61.9268 11.5 62.3108 11.5C62.6948 11.5 63.0148 11.408 63.2708 11.224C63.5348 11.04 63.7348 10.764 63.8708 10.396C64.0068 10.028 64.0748 9.576 64.0748 9.04C64.0748 8.496 64.0068 8.044 63.8708 7.684C63.7348 7.316 63.5348 7.04 63.2708 6.856C63.0148 6.672 62.6948 6.58 62.3108 6.58ZM78.1801 5.08V13H75.8881L73.4281 8.716L72.8281 7.54H72.8161L72.8641 9.004V13H71.0401V5.08H73.3321L75.7921 9.364L76.3921 10.54H76.4041L76.3561 9.076V5.08H78.1801ZM83.4866 4.96C84.2866 4.96 84.9746 5.124 85.5506 5.452C86.1346 5.772 86.5826 6.236 86.8946 6.844C87.2066 7.452 87.3626 8.184 87.3626 9.04C87.3626 9.896 87.2066 10.628 86.8946 11.236C86.5826 11.844 86.1346 12.312 85.5506 12.64C84.9746 12.96 84.2866 13.12 83.4866 13.12C82.6866 13.12 81.9946 12.96 81.4106 12.64C80.8266 12.312 80.3786 11.844 80.0666 11.236C79.7546 10.628 79.5986 9.896 79.5986 9.04C79.5986 8.184 79.7546 7.452 80.0666 6.844C80.3786 6.236 80.8266 5.772 81.4106 5.452C81.9946 5.124 82.6866 4.96 83.4866 4.96ZM83.4866 6.58C83.1026 6.58 82.7786 6.672 82.5146 6.856C82.2506 7.04 82.0506 7.316 81.9146 7.684C81.7786 8.044 81.7106 8.496 81.7106 9.04C81.7106 9.576 81.7786 10.028 81.9146 10.396C82.0506 10.764 82.2506 11.04 82.5146 11.224C82.7786 11.408 83.1026 11.5 83.4866 11.5C83.8706 11.5 84.1906 11.408 84.4466 11.224C84.7106 11.04 84.9106 10.764 85.0466 10.396C85.1826 10.028 85.2506 9.576 85.2506 9.04C85.2506 8.496 85.1826 8.044 85.0466 7.684C84.9106 7.316 84.7106 7.04 84.4466 6.856C84.1906 6.672 83.8706 6.58 83.4866 6.58ZM95.8193 5.08L93.0113 13H90.5873L87.7673 5.08H89.9393L91.3913 9.868L91.8233 11.428L92.2433 9.892L93.7193 5.08H95.8193ZM103.107 13H100.983L100.431 11.212H97.7193L97.1553 13H95.0793L97.8633 5.08H100.335L103.107 13ZM98.1033 9.808H100.047L99.0753 6.604L98.1033 9.808ZM109.692 5.08V6.676H107.112V13H105.048V6.676H102.456V5.08H109.692ZM114.096 4.96C114.896 4.96 115.584 5.124 116.16 5.452C116.744 5.772 117.192 6.236 117.504 6.844C117.816 7.452 117.972 8.184 117.972 9.04C117.972 9.896 117.816 10.628 117.504 11.236C117.192 11.844 116.744 12.312 116.16 12.64C115.584 12.96 114.896 13.12 114.096 13.12C113.296 13.12 112.604 12.96 112.02 12.64C111.436 12.312 110.988 11.844 110.676 11.236C110.364 10.628 110.208 9.896 110.208 9.04C110.208 8.184 110.364 7.452 110.676 6.844C110.988 6.236 111.436 5.772 112.02 5.452C112.604 5.124 113.296 4.96 114.096 4.96ZM114.096 6.58C113.712 6.58 113.388 6.672 113.124 6.856C112.86 7.04 112.66 7.316 112.524 7.684C112.388 8.044 112.32 8.496 112.32 9.04C112.32 9.576 112.388 10.028 112.524 10.396C112.66 10.764 112.86 11.04 113.124 11.224C113.388 11.408 113.712 11.5 114.096 11.5C114.48 11.5 114.8 11.408 115.056 11.224C115.32 11.04 115.52 10.764 115.656 10.396C115.792 10.028 115.86 9.576 115.86 9.04C115.86 8.496 115.792 8.044 115.656 7.684C115.52 7.316 115.32 7.04 115.056 6.856C114.8 6.672 114.48 6.58 114.096 6.58Z" fill="white"/>
</g>
<defs>
<filter id="filter0_d_61_79" x="0.5" y="0.5" width="123" height="25" filterUnits="userSpaceOnUse" color-interpolation-filters="sRGB">
<feFlood flood-opacity="0" result="BackgroundImageFix"/>
<feColorMatrix in="SourceAlpha" type="matrix" values="0 0 0 0 0 0 0 0 0 0 0 0 0 0 0 0 0 0 127 0" result="hardAlpha"/>
<feOffset dy="4"/>
<feGaussianBlur stdDeviation="2"/>
<feComposite in2="hardAlpha" operator="out"/>
<feColorMatrix type="matrix" values="0 0 0 0 0 0 0 0 0 0 0 0 0 0 0 0 0 0 0.25 0"/>
<feBlend mode="normal" in2="BackgroundImageFix" result="effect1_dropShadow_61_79"/>
<feBlend mode="normal" in="SourceGraphic" in2="effect1_dropShadow_61_79" result="shape"/>
</filter>
</defs>
</svg>
