<svg width="84" height="14" viewBox="0 0 84 14" fill="none" xmlns="http://www.w3.org/2000/svg">
<path d="M8.498 7.49958V2.4999H4.998V11.3823C5.59263 11.0717 6.15765 10.7073 6.686 10.2939L6.662 10.3119C7.886 9.35396 8.498 8.41652 8.498 7.49958ZM9.998 1.49997V7.49958C9.99694 7.96485 9.90505 8.42543 9.7275 8.8555L9.736 8.8315C9.57181 9.25456 9.3506 9.65322 9.0785 10.0164L9.0875 10.0034C8.81428 10.361 8.50847 10.6924 8.174 10.9934L8.1675 10.9994C7.86365 11.2787 7.54395 11.5403 7.21 11.7828L7.179 11.8043C6.877 12.0176 6.562 12.2194 6.234 12.4098C5.906 12.6001 5.673 12.7291 5.535 12.7967C5.397 12.8644 5.28633 12.9166 5.203 12.9532C5.13924 12.9842 5.06926 13.0002 4.99838 13C4.92751 12.9998 4.85761 12.9835 4.794 12.9522L4.7965 12.9532C4.71317 12.9166 4.6025 12.8644 4.4645 12.7967C4.3265 12.7291 4.0935 12.6001 3.7655 12.4098C3.4375 12.2194 3.1225 12.0176 2.8205 11.8043C2.472 11.5537 2.13874 11.2826 1.8225 10.9924L1.83 10.9994C1.49818 10.7015 1.19441 10.3738 0.9225 10.0204L0.91 10.0034C0.648111 9.65396 0.434053 9.2711 0.2735 8.865L0.2615 8.8315C0.0887278 8.40887 -9.17551e-05 7.95665 7.11282e-08 7.50008V1.49997C0.00400007 1.22549 0.2255 1.004 0.4995 1H9.5C9.7745 1.004 9.996 1.22549 10 1.49947L9.998 1.49997Z" fill="#37BC45"/>
<path d="M26.076 11H23.952L23.4 9.212H20.688L20.124 11H18.048L20.832 3.08H23.304L26.076 11ZM21.072 7.808H23.016L22.044 4.604L21.072 7.808ZM21.924 0.368H23.748L22.68 2.324H21.192L21.924 0.368ZM30.7771 3.08C31.7211 3.08 32.4531 3.304 32.9731 3.752C33.5011 4.192 33.7651 4.78 33.7651 5.516C33.7651 6.324 33.5051 6.94 32.9851 7.364C32.4651 7.788 31.7331 8 30.7891 8L30.5971 8.108H29.0251V11H26.9971V3.08H30.7771ZM30.4891 6.644C30.8891 6.644 31.1891 6.564 31.3891 6.404C31.5891 6.244 31.6891 5.988 31.6891 5.636C31.6891 5.292 31.5891 5.04 31.3891 4.88C31.1891 4.72 30.8891 4.64 30.4891 4.64H29.0251V6.644H30.4891ZM31.7011 7.076L34.2331 11H31.9531L29.9251 7.532L31.7011 7.076ZM35.2705 11V3.08H41.4385V4.676H37.3345V6.284H40.5985V7.784H37.3345V9.404H41.5945V11H35.2705ZM50.0408 11H47.9168L47.3648 9.212H44.6528L44.0888 11H42.0128L44.7968 3.08H47.2688L50.0408 11ZM45.0368 7.808H46.9808L46.0088 4.604L45.0368 7.808ZM57.222 2.96C57.958 2.96 58.606 3.076 59.166 3.308C59.734 3.532 60.226 3.864 60.642 4.304L59.646 5.636C59.302 5.276 58.93 5.008 58.53 4.832C58.138 4.648 57.69 4.556 57.186 4.556C56.89 4.556 56.65 4.588 56.466 4.652C56.282 4.716 56.15 4.804 56.07 4.916C55.99 5.028 55.95 5.156 55.95 5.3C55.95 5.468 56.026 5.612 56.178 5.732C56.338 5.844 56.594 5.94 56.946 6.02L58.278 6.32C59.07 6.504 59.65 6.772 60.018 7.124C60.386 7.476 60.57 7.944 60.57 8.528C60.57 9.088 60.426 9.564 60.138 9.956C59.85 10.34 59.454 10.632 58.95 10.832C58.446 11.024 57.87 11.12 57.222 11.12C56.694 11.12 56.19 11.064 55.71 10.952C55.23 10.832 54.798 10.664 54.414 10.448C54.03 10.232 53.706 9.984 53.442 9.704L54.438 8.324C54.638 8.556 54.882 8.764 55.17 8.948C55.466 9.124 55.786 9.264 56.13 9.368C56.482 9.472 56.838 9.524 57.198 9.524C57.478 9.524 57.71 9.496 57.894 9.44C58.086 9.384 58.226 9.3 58.314 9.188C58.402 9.076 58.446 8.944 58.446 8.792C58.446 8.624 58.386 8.484 58.266 8.372C58.146 8.252 57.918 8.152 57.582 8.072L56.118 7.748C55.67 7.644 55.27 7.508 54.918 7.34C54.574 7.164 54.302 6.932 54.102 6.644C53.902 6.348 53.802 5.98 53.802 5.54C53.802 5.044 53.938 4.604 54.21 4.22C54.482 3.828 54.874 3.52 55.386 3.296C55.898 3.072 56.51 2.96 57.222 2.96ZM69.0252 11H66.9012L66.3492 9.212H63.6372L63.0732 11H60.9972L63.7812 3.08H66.2532L69.0252 11ZM64.0212 7.808H65.9652L64.9932 4.604L64.0212 7.808ZM76.1023 4.676H72.0103V6.356H75.2743V7.952H72.0103V11H69.9463V3.08H76.1023V4.676ZM77.294 11V3.08H83.462V4.676H79.358V6.284H82.622V7.784H79.358V9.404H83.618V11H77.294Z" fill="white"/>
</svg>
