<svg width="171" height="18" viewBox="0 0 171 18" fill="none" xmlns="http://www.w3.org/2000/svg">
<path d="M3.45516 1.58798C3.65 0.662489 4.46649 0 5.41226 0H15.5351C16.8055 0 17.7539 1.16893 17.4922 2.41202L14.5448 16.412C14.35 17.3375 13.5335 18 12.5877 18H2.46489C1.19455 18 0.246089 16.8311 0.507794 15.588L3.45516 1.58798Z" fill="black" />
<path d="M20.4552 1.58798C20.65 0.662489 21.4665 0 22.4123 0H32.5351C33.8055 0 34.7539 1.16893 34.4922 2.41202L31.5448 16.412C31.35 17.3375 30.5335 18 29.5877 18H19.4649C18.1945 18 17.2461 16.8311 17.5078 15.588L20.4552 1.58798Z" fill="black" />
<path d="M37.4552 1.58798C37.65 0.662489 38.4665 0 39.4123 0H49.5351C50.8055 0 51.7539 1.16893 51.4922 2.41202L48.5448 16.412C48.35 17.3375 47.5335 18 46.5877 18H36.4649C35.1945 18 34.2461 16.8311 34.5078 15.588L37.4552 1.58798Z" fill="black" />
<path d="M54.4552 1.58798C54.65 0.662489 55.4665 0 56.4123 0H66.5351C67.8055 0 68.7539 1.16893 68.4922 2.41202L65.5448 16.412C65.35 17.3375 64.5335 18 63.5877 18H53.4649C52.1945 18 51.2461 16.8311 51.5078 15.588L54.4552 1.58798Z" fill="black" />
<path d="M71.4552 1.58798C71.65 0.662489 72.4665 0 73.4123 0H83.5351C84.8055 0 85.7539 1.16893 85.4922 2.41202L82.5448 16.412C82.35 17.3375 81.5335 18 80.5877 18H70.4649C69.1945 18 68.2461 16.8311 68.5078 15.588L71.4552 1.58798Z" fill="black" />
<path d="M88.4552 1.58798C88.65 0.662489 89.4665 0 90.4123 0H100.535C101.805 0 102.754 1.16893 102.492 2.41202L99.5448 16.412C99.35 17.3375 98.5335 18 97.5877 18H87.4649C86.1945 18 85.2461 16.8311 85.5078 15.588L88.4552 1.58798Z" fill="black" />
<path d="M107.412 0.5H117.535C118.488 0.5 119.199 1.37669 119.003 2.30902L116.056 16.309C115.909 17.0031 115.297 17.5 114.588 17.5H104.465C103.512 17.5 102.801 16.6233 102.997 15.691L105.944 1.69098C106.091 0.996867 106.703 0.5 107.412 0.5Z" fill="black" />
<path d="M124.412 0.5H134.535C135.488 0.5 136.199 1.37669 136.003 2.30902L133.056 16.309C132.909 17.0031 132.297 17.5 131.588 17.5H121.465C120.512 17.5 119.801 16.6233 119.997 15.691L122.944 1.69098C123.091 0.996867 123.703 0.5 124.412 0.5Z" fill="black" />
<path d="M141.412 0.5H151.535C152.488 0.5 153.199 1.37669 153.003 2.30902L150.056 16.309C149.909 17.0031 149.297 17.5 148.588 17.5H138.465C137.512 17.5 136.801 16.6233 136.997 15.691L139.944 1.69098C140.091 0.996867 140.703 0.5 141.412 0.5Z" fill="black" />
<path d="M158.412 0.5H168.535C169.488 0.5 170.199 1.37669 170.003 2.30902L167.056 16.309C166.909 17.0031 166.297 17.5 165.588 17.5H155.465C154.512 17.5 153.801 16.6233 153.997 15.691L156.944 1.69098C157.091 0.996867 157.703 0.5 158.412 0.5Z" fill="black" />
</svg>
