<svg width="182" height="68" viewBox="0 0 182 68" fill="none" xmlns="http://www.w3.org/2000/svg">
<path fill-rule="evenodd" clip-rule="evenodd" d="M66.5 1.78571V7.64286H69.5V1.78571L66.5 1.78571ZM66.5 13.5V19.3571H69.5V13.5H66.5ZM66.5 25.2143V31.0714H69.5V25.2143H66.5ZM66.5 36.9286V42.7857H69.5V36.9286H66.5ZM66.5 48.6429V54.5H69.5V48.6429H66.5ZM66.5 60.3571V66.2143H69.5V60.3571H66.5ZM2 0C0.895431 0 0 0.895432 0 2V66C0 67.1046 0.89543 68 2 68H180C181.105 68 182 67.1046 182 66V2C182 0.895431 181.105 0 180 0H2Z" fill="black" fill-opacity="0.5"/>
<path fill-rule="evenodd" clip-rule="evenodd" d="M66.5 1.78571V7.64286H69.5V1.78571L66.5 1.78571ZM66.5 13.5V19.3571H69.5V13.5H66.5ZM66.5 25.2143V31.0714H69.5V25.2143H66.5ZM66.5 36.9286V42.7857H69.5V36.9286H66.5ZM66.5 48.6429V54.5H69.5V48.6429H66.5ZM66.5 60.3571V66.2143H69.5V60.3571H66.5ZM2 0C0.895431 0 0 0.895432 0 2V66C0 67.1046 0.89543 68 2 68H180C181.105 68 182 67.1046 182 66V2C182 0.895431 181.105 0 180 0H2Z" fill="url(#paint0_linear_215_121)" fill-opacity="0.15"/>
<path d="M88.3534 27.18C87.7001 27.18 87.1368 27.0633 86.6634 26.83C86.1901 26.5967 85.8001 26.29 85.4934 25.91C85.1868 25.53 84.9568 25.1233 84.8034 24.69C84.6568 24.2567 84.5834 23.84 84.5834 23.44V23.22C84.5834 22.7867 84.6601 22.35 84.8134 21.91C84.9668 21.47 85.2001 21.07 85.5134 20.71C85.8268 20.3433 86.2168 20.05 86.6834 19.83C87.1568 19.61 87.7134 19.5 88.3534 19.5C88.9934 19.5 89.5468 19.61 90.0134 19.83C90.4868 20.05 90.8801 20.3433 91.1934 20.71C91.5068 21.07 91.7401 21.47 91.8934 21.91C92.0468 22.35 92.1234 22.7867 92.1234 23.22V23.44C92.1234 23.84 92.0468 24.2567 91.8934 24.69C91.7468 25.1233 91.5201 25.53 91.2134 25.91C90.9068 26.29 90.5168 26.5967 90.0434 26.83C89.5701 27.0633 89.0068 27.18 88.3534 27.18ZM88.3534 26.28C88.7801 26.28 89.1634 26.2 89.5034 26.04C89.8501 25.88 90.1434 25.6633 90.3834 25.39C90.6234 25.11 90.8068 24.7967 90.9334 24.45C91.0601 24.0967 91.1234 23.7267 91.1234 23.34C91.1234 22.9333 91.0601 22.5533 90.9334 22.2C90.8068 21.8467 90.6234 21.5367 90.3834 21.27C90.1434 20.9967 89.8501 20.7833 89.5034 20.63C89.1634 20.4767 88.7801 20.4 88.3534 20.4C87.9268 20.4 87.5401 20.4767 87.1934 20.63C86.8534 20.7833 86.5634 20.9967 86.3234 21.27C86.0834 21.5367 85.9001 21.8467 85.7734 22.2C85.6468 22.5533 85.5834 22.9333 85.5834 23.34C85.5834 23.7267 85.6468 24.0967 85.7734 24.45C85.9001 24.7967 86.0834 25.11 86.3234 25.39C86.5634 25.6633 86.8534 25.88 87.1934 26.04C87.5401 26.2 87.9268 26.28 88.3534 26.28ZM95.4458 27.16C94.8124 27.16 94.3258 26.9533 93.9858 26.54C93.6458 26.1267 93.4758 25.53 93.4758 24.75V21.65H94.4358V24.94C94.4358 25.36 94.5491 25.69 94.7758 25.93C95.0024 26.1633 95.3091 26.28 95.6958 26.28C96.0958 26.28 96.4224 26.1533 96.6758 25.9C96.9291 25.64 97.0558 25.2867 97.0558 24.84V21.65H98.0158V27H97.2558V24.71H97.3758C97.3758 25.2367 97.3058 25.6833 97.1658 26.05C97.0258 26.41 96.8158 26.6867 96.5358 26.88C96.2624 27.0667 95.9124 27.16 95.4858 27.16H95.4458ZM104 27.16C103.367 27.16 102.88 26.9533 102.54 26.54C102.2 26.1267 102.03 25.53 102.03 24.75V21.65H102.99V24.94C102.99 25.36 103.104 25.69 103.33 25.93C103.557 26.1633 103.864 26.28 104.25 26.28C104.65 26.28 104.977 26.1533 105.23 25.9C105.484 25.64 105.61 25.2867 105.61 24.84V21.65H106.57V27H105.81V24.71H105.93C105.93 25.2367 105.86 25.6833 105.72 26.05C105.58 26.41 105.37 26.6867 105.09 26.88C104.817 27.0667 104.467 27.16 104.04 27.16H104ZM110.18 27.16C109.48 27.16 108.936 27.01 108.55 26.71C108.17 26.41 107.973 26 107.96 25.48H108.86C108.873 25.6867 108.976 25.8833 109.17 26.07C109.37 26.25 109.706 26.34 110.18 26.34C110.606 26.34 110.933 26.2567 111.16 26.09C111.386 25.9167 111.5 25.7067 111.5 25.46C111.5 25.24 111.416 25.07 111.25 24.95C111.083 24.8233 110.813 24.74 110.44 24.7L109.86 24.64C109.353 24.5867 108.94 24.4367 108.62 24.19C108.3 23.9367 108.14 23.5833 108.14 23.13C108.14 22.79 108.226 22.5 108.4 22.26C108.573 22.0133 108.813 21.8267 109.12 21.7C109.426 21.5667 109.78 21.5 110.18 21.5C110.78 21.5 111.266 21.6333 111.64 21.9C112.013 22.1667 112.206 22.5633 112.22 23.09H111.32C111.313 22.8767 111.213 22.6967 111.02 22.55C110.833 22.3967 110.553 22.32 110.18 22.32C109.806 22.32 109.523 22.3967 109.33 22.55C109.136 22.7033 109.04 22.8967 109.04 23.13C109.04 23.33 109.106 23.49 109.24 23.61C109.38 23.73 109.606 23.8067 109.92 23.84L110.5 23.9C111.073 23.96 111.533 24.12 111.88 24.38C112.226 24.6333 112.4 24.9933 112.4 25.46C112.4 25.7933 112.303 26.09 112.11 26.35C111.923 26.6033 111.663 26.8033 111.33 26.95C110.996 27.09 110.613 27.16 110.18 27.16ZM116.061 27.18C115.594 27.18 115.191 27.1 114.851 26.94C114.511 26.78 114.234 26.57 114.021 26.31C113.808 26.0433 113.648 25.7467 113.541 25.42C113.441 25.0933 113.391 24.76 113.391 24.42V24.24C113.391 23.8933 113.441 23.5567 113.541 23.23C113.648 22.9033 113.808 22.61 114.021 22.35C114.234 22.0833 114.504 21.8733 114.831 21.72C115.164 21.56 115.554 21.48 116.001 21.48C116.581 21.48 117.058 21.6067 117.431 21.86C117.811 22.1067 118.091 22.4267 118.271 22.82C118.458 23.2133 118.551 23.6333 118.551 24.08V24.51H113.811V23.79H117.851L117.631 24.18C117.631 23.8 117.571 23.4733 117.451 23.2C117.331 22.92 117.151 22.7033 116.911 22.55C116.671 22.3967 116.368 22.32 116.001 22.32C115.621 22.32 115.304 22.4067 115.051 22.58C114.804 22.7533 114.618 22.99 114.491 23.29C114.371 23.59 114.311 23.9367 114.311 24.33C114.311 24.71 114.371 25.0533 114.491 25.36C114.618 25.66 114.811 25.9 115.071 26.08C115.331 26.2533 115.661 26.34 116.061 26.34C116.481 26.34 116.821 26.2467 117.081 26.06C117.348 25.8733 117.508 25.6567 117.561 25.41H118.461C118.388 25.7767 118.241 26.0933 118.021 26.36C117.801 26.6267 117.524 26.83 117.191 26.97C116.858 27.11 116.481 27.18 116.061 27.18ZM124.65 27.18C124.183 27.18 123.773 27.1 123.42 26.94C123.066 26.78 122.766 26.57 122.52 26.31C122.28 26.0433 122.096 25.7467 121.97 25.42C121.85 25.0933 121.79 24.76 121.79 24.42V24.24C121.79 23.9 121.853 23.5667 121.98 23.24C122.106 22.9067 122.293 22.61 122.54 22.35C122.786 22.0833 123.086 21.8733 123.44 21.72C123.793 21.56 124.196 21.48 124.65 21.48C125.103 21.48 125.506 21.56 125.86 21.72C126.213 21.8733 126.513 22.0833 126.76 22.35C127.006 22.61 127.193 22.9067 127.32 23.24C127.446 23.5667 127.51 23.9 127.51 24.24V24.42C127.51 24.76 127.446 25.0933 127.32 25.42C127.2 25.7467 127.016 26.0433 126.77 26.31C126.53 26.57 126.233 26.78 125.88 26.94C125.526 27.1 125.116 27.18 124.65 27.18ZM124.65 26.32C125.05 26.32 125.39 26.2333 125.67 26.06C125.956 25.88 126.173 25.64 126.32 25.34C126.473 25.04 126.55 24.7033 126.55 24.33C126.55 23.95 126.473 23.61 126.32 23.31C126.166 23.01 125.946 22.7733 125.66 22.6C125.38 22.4267 125.043 22.34 124.65 22.34C124.263 22.34 123.926 22.4267 123.64 22.6C123.353 22.7733 123.133 23.01 122.98 23.31C122.826 23.61 122.75 23.95 122.75 24.33C122.75 24.7033 122.823 25.04 122.97 25.34C123.123 25.64 123.34 25.88 123.62 26.06C123.906 26.2333 124.25 26.32 124.65 26.32ZM133.513 27.18C133.053 27.18 132.653 27.1 132.313 26.94C131.979 26.78 131.703 26.5667 131.483 26.3C131.263 26.0267 131.096 25.7267 130.983 25.4C130.876 25.0733 130.823 24.7467 130.823 24.42V24.24C130.823 23.9 130.876 23.5667 130.983 23.24C131.096 22.9133 131.263 22.62 131.483 22.36C131.709 22.0933 131.989 21.88 132.323 21.72C132.656 21.56 133.046 21.48 133.493 21.48C133.939 21.48 134.339 21.5633 134.693 21.73C135.053 21.8967 135.339 22.1333 135.553 22.44C135.773 22.74 135.896 23.0967 135.923 23.51H135.003C134.956 23.1767 134.803 22.9 134.543 22.68C134.283 22.4533 133.933 22.34 133.493 22.34C133.113 22.34 132.796 22.4267 132.543 22.6C132.289 22.7733 132.099 23.01 131.973 23.31C131.846 23.61 131.783 23.95 131.783 24.33C131.783 24.6967 131.846 25.0333 131.973 25.34C132.099 25.64 132.289 25.88 132.543 26.06C132.803 26.2333 133.126 26.32 133.513 26.32C133.813 26.32 134.073 26.2667 134.293 26.16C134.513 26.0533 134.689 25.91 134.823 25.73C134.956 25.55 135.036 25.3467 135.063 25.12H135.983C135.963 25.54 135.839 25.9033 135.613 26.21C135.393 26.5167 135.099 26.7567 134.733 26.93C134.373 27.0967 133.966 27.18 133.513 27.18ZM139.137 27.16C138.504 27.16 138.017 26.9533 137.677 26.54C137.337 26.1267 137.167 25.53 137.167 24.75V21.65H138.127V24.94C138.127 25.36 138.241 25.69 138.467 25.93C138.694 26.1633 139.001 26.28 139.387 26.28C139.787 26.28 140.114 26.1533 140.367 25.9C140.621 25.64 140.747 25.2867 140.747 24.84V21.65H141.707V27H140.947V24.71H141.067C141.067 25.2367 140.997 25.6833 140.857 26.05C140.717 26.41 140.507 26.6867 140.227 26.88C139.954 27.0667 139.604 27.16 139.177 27.16H139.137ZM143.566 29V21.66H144.326V23.97L144.146 23.95C144.18 23.3767 144.3 22.91 144.506 22.55C144.72 22.1833 144.996 21.9133 145.336 21.74C145.676 21.5667 146.046 21.48 146.446 21.48C146.833 21.48 147.183 21.5533 147.496 21.7C147.816 21.8467 148.09 22.0467 148.316 22.3C148.543 22.5533 148.716 22.8467 148.836 23.18C148.956 23.5133 149.016 23.8667 149.016 24.24V24.42C149.016 24.7933 148.953 25.1467 148.826 25.48C148.7 25.8133 148.52 26.1067 148.286 26.36C148.06 26.6133 147.786 26.8133 147.466 26.96C147.153 27.1067 146.806 27.18 146.426 27.18C146.046 27.18 145.683 27.0967 145.336 26.93C144.99 26.7633 144.703 26.4933 144.476 26.12C144.25 25.7467 144.12 25.2567 144.086 24.65L144.526 25.45V29H143.566ZM146.276 26.34C146.636 26.34 146.95 26.2567 147.216 26.09C147.483 25.9167 147.69 25.68 147.836 25.38C147.983 25.0733 148.056 24.7233 148.056 24.33C148.056 23.93 147.983 23.58 147.836 23.28C147.69 22.98 147.483 22.7467 147.216 22.58C146.95 22.4067 146.636 22.32 146.276 22.32C145.956 22.32 145.66 22.3933 145.386 22.54C145.113 22.68 144.893 22.8867 144.726 23.16C144.566 23.4267 144.486 23.75 144.486 24.13V24.59C144.486 24.9567 144.57 25.27 144.736 25.53C144.903 25.79 145.123 25.99 145.396 26.13C145.67 26.27 145.963 26.34 146.276 26.34ZM152.921 27.18C152.454 27.18 152.044 27.1 151.691 26.94C151.338 26.78 151.038 26.57 150.791 26.31C150.551 26.0433 150.368 25.7467 150.241 25.42C150.121 25.0933 150.061 24.76 150.061 24.42V24.24C150.061 23.9 150.124 23.5667 150.251 23.24C150.378 22.9067 150.564 22.61 150.811 22.35C151.058 22.0833 151.358 21.8733 151.711 21.72C152.064 21.56 152.468 21.48 152.921 21.48C153.374 21.48 153.778 21.56 154.131 21.72C154.484 21.8733 154.784 22.0833 155.031 22.35C155.278 22.61 155.464 22.9067 155.591 23.24C155.718 23.5667 155.781 23.9 155.781 24.24V24.42C155.781 24.76 155.718 25.0933 155.591 25.42C155.471 25.7467 155.288 26.0433 155.041 26.31C154.801 26.57 154.504 26.78 154.151 26.94C153.798 27.1 153.388 27.18 152.921 27.18ZM152.921 26.32C153.321 26.32 153.661 26.2333 153.941 26.06C154.228 25.88 154.444 25.64 154.591 25.34C154.744 25.04 154.821 24.7033 154.821 24.33C154.821 23.95 154.744 23.61 154.591 23.31C154.438 23.01 154.218 22.7733 153.931 22.6C153.651 22.4267 153.314 22.34 152.921 22.34C152.534 22.34 152.198 22.4267 151.911 22.6C151.624 22.7733 151.404 23.01 151.251 23.31C151.098 23.61 151.021 23.95 151.021 24.33C151.021 24.7033 151.094 25.04 151.241 25.34C151.394 25.64 151.611 25.88 151.891 26.06C152.178 26.2333 152.521 26.32 152.921 26.32ZM157.219 27V21.66H157.979V23.95H157.859C157.859 23.43 157.925 22.99 158.059 22.63C158.199 22.2633 158.405 21.9833 158.679 21.79C158.952 21.5967 159.299 21.5 159.719 21.5H159.759C160.179 21.5 160.525 21.5967 160.799 21.79C161.079 21.9833 161.285 22.2633 161.419 22.63C161.552 22.99 161.619 23.43 161.619 23.95H161.339C161.339 23.43 161.409 22.99 161.549 22.63C161.689 22.2633 161.895 21.9833 162.169 21.79C162.449 21.5967 162.799 21.5 163.219 21.5H163.259C163.679 21.5 164.029 21.5967 164.309 21.79C164.589 21.9833 164.795 22.2633 164.929 22.63C165.069 22.99 165.139 23.43 165.139 23.95V27H164.179V23.74C164.179 23.3067 164.072 22.9733 163.859 22.74C163.645 22.5 163.349 22.38 162.969 22.38C162.575 22.38 162.259 22.5067 162.019 22.76C161.779 23.0067 161.659 23.3533 161.659 23.8V27H160.699V23.74C160.699 23.3067 160.592 22.9733 160.379 22.74C160.165 22.5 159.869 22.38 159.489 22.38C159.095 22.38 158.779 22.5067 158.539 22.76C158.299 23.0067 158.179 23.3533 158.179 23.8V27H157.219ZM93.7362 45V34.78H96.3402V45H93.7362ZM96.0602 41.038V38.91H99.8542V41.038H96.0602ZM96.0602 36.908V34.78H100.008V36.908H96.0602ZM101.57 45V34.78H104.174V45H101.57ZM103.894 45V42.732H108.038V45H103.894ZM113.417 45.28C112.437 45.28 111.606 45.098 110.925 44.734C110.253 44.37 109.739 43.8567 109.385 43.194C109.03 42.522 108.853 41.7287 108.853 40.814V34.78H111.457V40.87C111.457 41.2713 111.531 41.6213 111.681 41.92C111.839 42.2187 112.063 42.4473 112.353 42.606C112.642 42.7647 112.997 42.844 113.417 42.844C113.837 42.844 114.191 42.7647 114.481 42.606C114.77 42.4473 114.989 42.2233 115.139 41.934C115.288 41.6353 115.363 41.2807 115.363 40.87V34.78H117.967V40.814C117.967 41.7287 117.789 42.522 117.435 43.194C117.089 43.8567 116.576 44.37 115.895 44.734C115.223 45.098 114.397 45.28 113.417 45.28ZM118.761 45L122.149 39.568L122.177 39.792L119.041 34.78H121.897L123.647 37.734H124.011L125.705 34.78H128.477L125.355 39.82L125.313 39.596L128.813 45H125.957L123.871 41.626H123.507L121.533 45H118.761ZM134.473 45.28C133.539 45.28 132.727 45.1213 132.037 44.804C131.346 44.4773 130.772 44.0527 130.315 43.53C129.857 42.998 129.517 42.424 129.293 41.808C129.069 41.192 128.957 40.5947 128.957 40.016V39.708C128.957 39.064 129.073 38.434 129.307 37.818C129.54 37.1927 129.89 36.628 130.357 36.124C130.823 35.62 131.397 35.2187 132.079 34.92C132.769 34.6213 133.567 34.472 134.473 34.472C135.369 34.472 136.157 34.6213 136.839 34.92C137.529 35.2187 138.108 35.62 138.575 36.124C139.041 36.628 139.391 37.1927 139.625 37.818C139.867 38.434 139.989 39.064 139.989 39.708V40.016C139.989 40.5947 139.872 41.192 139.639 41.808C139.415 42.424 139.074 42.998 138.617 43.53C138.159 44.0527 137.585 44.4773 136.895 44.804C136.204 45.1213 135.397 45.28 134.473 45.28ZM134.473 42.844C134.921 42.844 135.322 42.7693 135.677 42.62C136.031 42.4707 136.335 42.2607 136.587 41.99C136.839 41.7193 137.03 41.4067 137.161 41.052C137.291 40.688 137.357 40.296 137.357 39.876C137.357 39.428 137.287 39.022 137.147 38.658C137.016 38.294 136.825 37.9813 136.573 37.72C136.321 37.4587 136.017 37.258 135.663 37.118C135.308 36.978 134.911 36.908 134.473 36.908C134.025 36.908 133.623 36.978 133.269 37.118C132.914 37.258 132.611 37.4587 132.359 37.72C132.107 37.9813 131.915 38.294 131.785 38.658C131.654 39.022 131.589 39.428 131.589 39.876C131.589 40.296 131.654 40.688 131.785 41.052C131.915 41.4067 132.107 41.7193 132.359 41.99C132.611 42.2607 132.914 42.4707 133.269 42.62C133.623 42.7693 134.025 42.844 134.473 42.844ZM142.848 45V36.572L143.464 37.048H140.944V34.78H145.452V45H142.848ZM151.93 45.28C151.099 45.28 150.39 45.1493 149.802 44.888C149.214 44.6173 148.733 44.2533 148.36 43.796C147.987 43.3293 147.711 42.7973 147.534 42.2C147.357 41.5933 147.268 40.9587 147.268 40.296V39.484C147.268 38.5507 147.436 37.706 147.772 36.95C148.108 36.194 148.621 35.592 149.312 35.144C150.003 34.696 150.875 34.472 151.93 34.472C152.985 34.472 153.853 34.696 154.534 35.144C155.225 35.592 155.738 36.194 156.074 36.95C156.41 37.706 156.578 38.5507 156.578 39.484V40.296C156.578 40.9587 156.489 41.5933 156.312 42.2C156.135 42.7973 155.859 43.3293 155.486 43.796C155.122 44.2533 154.646 44.6173 154.058 44.888C153.47 45.1493 152.761 45.28 151.93 45.28ZM151.93 42.872C152.621 42.872 153.134 42.6293 153.47 42.144C153.806 41.6587 153.974 40.912 153.974 39.904C153.974 38.8307 153.801 38.0607 153.456 37.594C153.111 37.118 152.602 36.88 151.93 36.88C151.249 36.88 150.735 37.118 150.39 37.594C150.045 38.0607 149.872 38.8213 149.872 39.876C149.872 40.8933 150.04 41.6493 150.376 42.144C150.721 42.6293 151.239 42.872 151.93 42.872Z" fill="white"/>
<mask id="mask0_215_121" style="mask-type:alpha" maskUnits="userSpaceOnUse" x="10" y="10" width="48" height="48">
<rect x="10" y="10" width="48" height="48" rx="1" fill="#D9D9D9"/>
</mask>
<g mask="url(#mask0_215_121)">
<path d="M24.8966 10H23.2415V11.6552H24.8966V10Z" fill="white"/>
<path d="M28.2069 10H26.5518V11.6552H28.2069V10Z" fill="white"/>
<path d="M31.5172 10H29.8621V11.6552H31.5172V10Z" fill="white"/>
<path d="M36.4828 10H34.8276V11.6552H36.4828V10Z" fill="white"/>
<path d="M38.1378 10H36.4827V11.6552H38.1378V10Z" fill="white"/>
<path d="M41.4484 10H39.7932V11.6552H41.4484V10Z" fill="white"/>
<path d="M24.8966 11.6553H23.2415V13.3104H24.8966V11.6553Z" fill="white"/>
<path d="M31.5172 11.6553H29.8621V13.3104H31.5172V11.6553Z" fill="white"/>
<path d="M38.1378 11.6553H36.4827V13.3104H38.1378V11.6553Z" fill="white"/>
<path d="M39.7931 11.6553H38.1379V13.3104H39.7931V11.6553Z" fill="white"/>
<path d="M43.1034 11.6553H41.4482V13.3104H43.1034V11.6553Z" fill="white"/>
<path d="M24.8966 13.3103H23.2415V14.9655H24.8966V13.3103Z" fill="white"/>
<path d="M29.862 13.3103H28.2068V14.9655H29.862V13.3103Z" fill="white"/>
<path d="M36.4828 13.3103H34.8276V14.9655H36.4828V13.3103Z" fill="white"/>
<path d="M38.1378 13.3103H36.4827V14.9655H38.1378V13.3103Z" fill="white"/>
<path d="M26.5517 14.9656H24.8965V16.6207H26.5517V14.9656Z" fill="white"/>
<path d="M29.862 14.9656H28.2068V16.6207H29.862V14.9656Z" fill="white"/>
<path d="M38.1378 14.9656H36.4827V16.6207H38.1378V14.9656Z" fill="white"/>
<path d="M39.7931 14.9656H38.1379V16.6207H39.7931V14.9656Z" fill="white"/>
<path d="M44.7587 14.9656H43.1035V16.6207H44.7587V14.9656Z" fill="white"/>
<path d="M24.8966 16.6206H23.2415V18.2758H24.8966V16.6206Z" fill="white"/>
<path d="M26.5517 16.6206H24.8965V18.2758H26.5517V16.6206Z" fill="white"/>
<path d="M28.2069 16.6206H26.5518V18.2758H28.2069V16.6206Z" fill="white"/>
<path d="M29.862 16.6206H28.2068V18.2758H29.862V16.6206Z" fill="white"/>
<path d="M34.8275 16.6206H33.1724V18.2758H34.8275V16.6206Z" fill="white"/>
<path d="M36.4828 16.6206H34.8276V18.2758H36.4828V16.6206Z" fill="white"/>
<path d="M38.1378 16.6206H36.4827V18.2758H38.1378V16.6206Z" fill="white"/>
<path d="M41.4484 16.6206H39.7932V18.2758H41.4484V16.6206Z" fill="white"/>
<path d="M43.1034 16.6206H41.4482V18.2758H43.1034V16.6206Z" fill="white"/>
<path d="M31.5172 18.2759H29.8621V19.9311H31.5172V18.2759Z" fill="white"/>
<path d="M36.4828 18.2759H34.8276V19.9311H36.4828V18.2759Z" fill="white"/>
<path d="M38.1378 18.2759H36.4827V19.9311H38.1378V18.2759Z" fill="white"/>
<path d="M39.7931 18.2759H38.1379V19.9311H39.7931V18.2759Z" fill="white"/>
<path d="M24.8966 19.9312H23.2415V21.5863H24.8966V19.9312Z" fill="white"/>
<path d="M28.2069 19.9312H26.5518V21.5863H28.2069V19.9312Z" fill="white"/>
<path d="M31.5172 19.9312H29.8621V21.5863H31.5172V19.9312Z" fill="white"/>
<path d="M34.8275 19.9312H33.1724V21.5863H34.8275V19.9312Z" fill="white"/>
<path d="M38.1378 19.9312H36.4827V21.5863H38.1378V19.9312Z" fill="white"/>
<path d="M41.4484 19.9312H39.7932V21.5863H41.4484V19.9312Z" fill="white"/>
<path d="M44.7587 19.9312H43.1035V21.5863H44.7587V19.9312Z" fill="white"/>
<path d="M26.5517 21.5862H24.8965V23.2414H26.5517V21.5862Z" fill="white"/>
<path d="M29.862 21.5862H28.2068V23.2414H29.862V21.5862Z" fill="white"/>
<path d="M31.5172 21.5862H29.8621V23.2414H31.5172V21.5862Z" fill="white"/>
<path d="M33.1725 21.5862H31.5173V23.2414H33.1725V21.5862Z" fill="white"/>
<path d="M36.4828 21.5862H34.8276V23.2414H36.4828V21.5862Z" fill="white"/>
<path d="M38.1378 21.5862H36.4827V23.2414H38.1378V21.5862Z" fill="white"/>
<path d="M11.6552 23.2415H10V24.8966H11.6552V23.2415Z" fill="white"/>
<path d="M16.6207 23.2415H14.9656V24.8966H16.6207V23.2415Z" fill="white"/>
<path d="M18.2758 23.2415H16.6206V24.8966H18.2758V23.2415Z" fill="white"/>
<path d="M19.9311 23.2415H18.2759V24.8966H19.9311V23.2415Z" fill="white"/>
<path d="M21.5863 23.2415H19.9312V24.8966H21.5863V23.2415Z" fill="white"/>
<path d="M23.2414 23.2415H21.5862V24.8966H23.2414V23.2415Z" fill="white"/>
<path d="M24.8966 23.2415H23.2415V24.8966H24.8966V23.2415Z" fill="white"/>
<path d="M26.5517 23.2415H24.8965V24.8966H26.5517V23.2415Z" fill="white"/>
<path d="M28.2069 23.2415H26.5518V24.8966H28.2069V23.2415Z" fill="white"/>
<path d="M31.5172 23.2415H29.8621V24.8966H31.5172V23.2415Z" fill="white"/>
<path d="M33.1725 23.2415H31.5173V24.8966H33.1725V23.2415Z" fill="white"/>
<path d="M39.7931 23.2415H38.1379V24.8966H39.7931V23.2415Z" fill="white"/>
<path d="M41.4484 23.2415H39.7932V24.8966H41.4484V23.2415Z" fill="white"/>
<path d="M46.4137 23.2415H44.7585V24.8966H46.4137V23.2415Z" fill="white"/>
<path d="M51.3793 23.2415H49.7241V24.8966H51.3793V23.2415Z" fill="white"/>
<path d="M54.6896 23.2415H53.0344V24.8966H54.6896V23.2415Z" fill="white"/>
<path d="M56.3449 23.2415H54.6897V24.8966H56.3449V23.2415Z" fill="white"/>
<path d="M57.9999 23.2415H56.3447V24.8966H57.9999V23.2415Z" fill="white"/>
<path d="M11.6552 24.8965H10V26.5517H11.6552V24.8965Z" fill="white"/>
<path d="M13.3104 24.8965H11.6553V26.5517H13.3104V24.8965Z" fill="white"/>
<path d="M16.6207 24.8965H14.9656V26.5517H16.6207V24.8965Z" fill="white"/>
<path d="M28.2069 24.8965H26.5518V26.5517H28.2069V24.8965Z" fill="white"/>
<path d="M29.862 24.8965H28.2068V26.5517H29.862V24.8965Z" fill="white"/>
<path d="M31.5172 24.8965H29.8621V26.5517H31.5172V24.8965Z" fill="white"/>
<path d="M33.1725 24.8965H31.5173V26.5517H33.1725V24.8965Z" fill="white"/>
<path d="M38.1378 24.8965H36.4827V26.5517H38.1378V24.8965Z" fill="white"/>
<path d="M39.7931 24.8965H38.1379V26.5517H39.7931V24.8965Z" fill="white"/>
<path d="M41.4484 24.8965H39.7932V26.5517H41.4484V24.8965Z" fill="white"/>
<path d="M43.1034 24.8965H41.4482V26.5517H43.1034V24.8965Z" fill="white"/>
<path d="M44.7587 24.8965H43.1035V26.5517H44.7587V24.8965Z" fill="white"/>
<path d="M49.7243 24.8965H48.0691V26.5517H49.7243V24.8965Z" fill="white"/>
<path d="M51.3793 24.8965H49.7241V26.5517H51.3793V24.8965Z" fill="white"/>
<path d="M54.6896 24.8965H53.0344V26.5517H54.6896V24.8965Z" fill="white"/>
<path d="M56.3449 24.8965H54.6897V26.5517H56.3449V24.8965Z" fill="white"/>
<path d="M18.2758 26.5518H16.6206V28.2069H18.2758V26.5518Z" fill="white"/>
<path d="M19.9311 26.5518H18.2759V28.2069H19.9311V26.5518Z" fill="white"/>
<path d="M21.5863 26.5518H19.9312V28.2069H21.5863V26.5518Z" fill="white"/>
<path d="M28.2069 26.5518H26.5518V28.2069H28.2069V26.5518Z" fill="white"/>
<path d="M29.862 26.5518H28.2068V28.2069H29.862V26.5518Z" fill="white"/>
<path d="M33.1725 26.5518H31.5173V28.2069H33.1725V26.5518Z" fill="white"/>
<path d="M36.4828 26.5518H34.8276V28.2069H36.4828V26.5518Z" fill="white"/>
<path d="M38.1378 26.5518H36.4827V28.2069H38.1378V26.5518Z" fill="white"/>
<path d="M44.7587 26.5518H43.1035V28.2069H44.7587V26.5518Z" fill="white"/>
<path d="M46.4137 26.5518H44.7585V28.2069H46.4137V26.5518Z" fill="white"/>
<path d="M49.7243 26.5518H48.0691V28.2069H49.7243V26.5518Z" fill="white"/>
<path d="M51.3793 26.5518H49.7241V28.2069H51.3793V26.5518Z" fill="white"/>
<path d="M54.6896 26.5518H53.0344V28.2069H54.6896V26.5518Z" fill="white"/>
<path d="M11.6552 28.207H10V29.8622H11.6552V28.207Z" fill="white"/>
<path d="M13.3104 28.207H11.6553V29.8622H13.3104V28.207Z" fill="white"/>
<path d="M18.2758 28.207H16.6206V29.8622H18.2758V28.207Z" fill="white"/>
<path d="M23.2414 28.207H21.5862V29.8622H23.2414V28.207Z" fill="white"/>
<path d="M24.8966 28.207H23.2415V29.8622H24.8966V28.207Z" fill="white"/>
<path d="M28.2069 28.207H26.5518V29.8622H28.2069V28.207Z" fill="white"/>
<path d="M29.862 28.207H28.2068V29.8622H29.862V28.207Z" fill="white"/>
<path d="M33.1725 28.207H31.5173V29.8622H33.1725V28.207Z" fill="white"/>
<path d="M38.1378 28.207H36.4827V29.8622H38.1378V28.207Z" fill="white"/>
<path d="M39.7931 28.207H38.1379V29.8622H39.7931V28.207Z" fill="white"/>
<path d="M41.4484 28.207H39.7932V29.8622H41.4484V28.207Z" fill="white"/>
<path d="M43.1034 28.207H41.4482V29.8622H43.1034V28.207Z" fill="white"/>
<path d="M44.7587 28.207H43.1035V29.8622H44.7587V28.207Z" fill="white"/>
<path d="M46.4137 28.207H44.7585V29.8622H46.4137V28.207Z" fill="white"/>
<path d="M48.069 28.207H46.4138V29.8622H48.069V28.207Z" fill="white"/>
<path d="M49.7243 28.207H48.0691V29.8622H49.7243V28.207Z" fill="white"/>
<path d="M51.3793 28.207H49.7241V29.8622H51.3793V28.207Z" fill="white"/>
<path d="M53.0346 28.207H51.3794V29.8622H53.0346V28.207Z" fill="white"/>
<path d="M57.9999 28.207H56.3447V29.8622H57.9999V28.207Z" fill="white"/>
<path d="M11.6552 29.8621H10V31.5172H11.6552V29.8621Z" fill="white"/>
<path d="M14.9655 29.8621H13.3103V31.5172H14.9655V29.8621Z" fill="white"/>
<path d="M18.2758 29.8621H16.6206V31.5172H18.2758V29.8621Z" fill="white"/>
<path d="M21.5863 29.8621H19.9312V31.5172H21.5863V29.8621Z" fill="white"/>
<path d="M23.2414 29.8621H21.5862V31.5172H23.2414V29.8621Z" fill="white"/>
<path d="M24.8966 29.8621H23.2415V31.5172H24.8966V29.8621Z" fill="white"/>
<path d="M28.2069 29.8621H26.5518V31.5172H28.2069V29.8621Z" fill="white"/>
<path d="M29.862 29.8621H28.2068V31.5172H29.862V29.8621Z" fill="white"/>
<path d="M33.1725 29.8621H31.5173V31.5172H33.1725V29.8621Z" fill="white"/>
<path d="M36.4828 29.8621H34.8276V31.5172H36.4828V29.8621Z" fill="white"/>
<path d="M38.1378 29.8621H36.4827V31.5172H38.1378V29.8621Z" fill="white"/>
<path d="M43.1034 29.8621H41.4482V31.5172H43.1034V29.8621Z" fill="white"/>
<path d="M44.7587 29.8621H43.1035V31.5172H44.7587V29.8621Z" fill="white"/>
<path d="M48.069 29.8621H46.4138V31.5172H48.069V29.8621Z" fill="white"/>
<path d="M57.9999 29.8621H56.3447V31.5172H57.9999V29.8621Z" fill="white"/>
<path d="M11.6552 31.5173H10V33.1725H11.6552V31.5173Z" fill="white"/>
<path d="M13.3104 31.5173H11.6553V33.1725H13.3104V31.5173Z" fill="white"/>
<path d="M18.2758 31.5173H16.6206V33.1725H18.2758V31.5173Z" fill="white"/>
<path d="M28.2069 31.5173H26.5518V33.1725H28.2069V31.5173Z" fill="white"/>
<path d="M33.1725 31.5173H31.5173V33.1725H33.1725V31.5173Z" fill="white"/>
<path d="M34.8275 31.5173H33.1724V33.1725H34.8275V31.5173Z" fill="white"/>
<path d="M38.1378 31.5173H36.4827V33.1725H38.1378V31.5173Z" fill="white"/>
<path d="M41.4484 31.5173H39.7932V33.1725H41.4484V31.5173Z" fill="white"/>
<path d="M48.069 31.5173H46.4138V33.1725H48.069V31.5173Z" fill="white"/>
<path d="M49.7243 31.5173H48.0691V33.1725H49.7243V31.5173Z" fill="white"/>
<path d="M51.3793 31.5173H49.7241V33.1725H51.3793V31.5173Z" fill="white"/>
<path d="M53.0346 31.5173H51.3794V33.1725H53.0346V31.5173Z" fill="white"/>
<path d="M54.6896 31.5173H53.0344V33.1725H54.6896V31.5173Z" fill="white"/>
<path d="M56.3449 31.5173H54.6897V33.1725H56.3449V31.5173Z" fill="white"/>
<path d="M57.9999 31.5173H56.3447V33.1725H57.9999V31.5173Z" fill="white"/>
<path d="M11.6552 33.1724H10V34.8275H11.6552V33.1724Z" fill="white"/>
<path d="M16.6207 33.1724H14.9656V34.8275H16.6207V33.1724Z" fill="white"/>
<path d="M18.2758 33.1724H16.6206V34.8275H18.2758V33.1724Z" fill="white"/>
<path d="M21.5863 33.1724H19.9312V34.8275H21.5863V33.1724Z" fill="white"/>
<path d="M24.8966 33.1724H23.2415V34.8275H24.8966V33.1724Z" fill="white"/>
<path d="M29.862 33.1724H28.2068V34.8275H29.862V33.1724Z" fill="white"/>
<path d="M31.5172 33.1724H29.8621V34.8275H31.5172V33.1724Z" fill="white"/>
<path d="M33.1725 33.1724H31.5173V34.8275H33.1725V33.1724Z" fill="white"/>
<path d="M38.1378 33.1724H36.4827V34.8275H38.1378V33.1724Z" fill="white"/>
<path d="M39.7931 33.1724H38.1379V34.8275H39.7931V33.1724Z" fill="white"/>
<path d="M41.4484 33.1724H39.7932V34.8275H41.4484V33.1724Z" fill="white"/>
<path d="M43.1034 33.1724H41.4482V34.8275H43.1034V33.1724Z" fill="white"/>
<path d="M48.069 33.1724H46.4138V34.8275H48.069V33.1724Z" fill="white"/>
<path d="M54.6896 33.1724H53.0344V34.8275H54.6896V33.1724Z" fill="white"/>
<path d="M57.9999 33.1724H56.3447V34.8275H57.9999V33.1724Z" fill="white"/>
<path d="M13.3104 34.8276H11.6553V36.4828H13.3104V34.8276Z" fill="white"/>
<path d="M26.5517 34.8276H24.8965V36.4828H26.5517V34.8276Z" fill="white"/>
<path d="M28.2069 34.8276H26.5518V36.4828H28.2069V34.8276Z" fill="white"/>
<path d="M31.5172 34.8276H29.8621V36.4828H31.5172V34.8276Z" fill="white"/>
<path d="M36.4828 34.8276H34.8276V36.4828H36.4828V34.8276Z" fill="white"/>
<path d="M41.4484 34.8276H39.7932V36.4828H41.4484V34.8276Z" fill="white"/>
<path d="M46.4137 34.8276H44.7585V36.4828H46.4137V34.8276Z" fill="white"/>
<path d="M49.7243 34.8276H48.0691V36.4828H49.7243V34.8276Z" fill="white"/>
<path d="M54.6896 34.8276H53.0344V36.4828H54.6896V34.8276Z" fill="white"/>
<path d="M57.9999 34.8276H56.3447V36.4828H57.9999V34.8276Z" fill="white"/>
<path d="M11.6552 36.4827H10V38.1378H11.6552V36.4827Z" fill="white"/>
<path d="M14.9655 36.4827H13.3103V38.1378H14.9655V36.4827Z" fill="white"/>
<path d="M16.6207 36.4827H14.9656V38.1378H16.6207V36.4827Z" fill="white"/>
<path d="M21.5863 36.4827H19.9312V38.1378H21.5863V36.4827Z" fill="white"/>
<path d="M23.2414 36.4827H21.5862V38.1378H23.2414V36.4827Z" fill="white"/>
<path d="M28.2069 36.4827H26.5518V38.1378H28.2069V36.4827Z" fill="white"/>
<path d="M29.862 36.4827H28.2068V38.1378H29.862V36.4827Z" fill="white"/>
<path d="M34.8275 36.4827H33.1724V38.1378H34.8275V36.4827Z" fill="white"/>
<path d="M38.1378 36.4827H36.4827V38.1378H38.1378V36.4827Z" fill="white"/>
<path d="M43.1034 36.4827H41.4482V38.1378H43.1034V36.4827Z" fill="white"/>
<path d="M44.7587 36.4827H43.1035V38.1378H44.7587V36.4827Z" fill="white"/>
<path d="M49.7243 36.4827H48.0691V38.1378H49.7243V36.4827Z" fill="white"/>
<path d="M53.0346 36.4827H51.3794V38.1378H53.0346V36.4827Z" fill="white"/>
<path d="M11.6552 38.1379H10V39.7931H11.6552V38.1379Z" fill="white"/>
<path d="M13.3104 38.1379H11.6553V39.7931H13.3104V38.1379Z" fill="white"/>
<path d="M14.9655 38.1379H13.3103V39.7931H14.9655V38.1379Z" fill="white"/>
<path d="M19.9311 38.1379H18.2759V39.7931H19.9311V38.1379Z" fill="white"/>
<path d="M24.8966 38.1379H23.2415V39.7931H24.8966V38.1379Z" fill="white"/>
<path d="M26.5517 38.1379H24.8965V39.7931H26.5517V38.1379Z" fill="white"/>
<path d="M28.2069 38.1379H26.5518V39.7931H28.2069V38.1379Z" fill="white"/>
<path d="M33.1725 38.1379H31.5173V39.7931H33.1725V38.1379Z" fill="white"/>
<path d="M34.8275 38.1379H33.1724V39.7931H34.8275V38.1379Z" fill="white"/>
<path d="M38.1378 38.1379H36.4827V39.7931H38.1378V38.1379Z" fill="white"/>
<path d="M39.7931 38.1379H38.1379V39.7931H39.7931V38.1379Z" fill="white"/>
<path d="M43.1034 38.1379H41.4482V39.7931H43.1034V38.1379Z" fill="white"/>
<path d="M44.7587 38.1379H43.1035V39.7931H44.7587V38.1379Z" fill="white"/>
<path d="M51.3793 38.1379H49.7241V39.7931H51.3793V38.1379Z" fill="white"/>
<path d="M54.6896 38.1379H53.0344V39.7931H54.6896V38.1379Z" fill="white"/>
<path d="M56.3449 38.1379H54.6897V39.7931H56.3449V38.1379Z" fill="white"/>
<path d="M11.6552 39.793H10V41.4481H11.6552V39.793Z" fill="white"/>
<path d="M13.3104 39.793H11.6553V41.4481H13.3104V39.793Z" fill="white"/>
<path d="M14.9655 39.793H13.3103V41.4481H14.9655V39.793Z" fill="white"/>
<path d="M16.6207 39.793H14.9656V41.4481H16.6207V39.793Z" fill="white"/>
<path d="M18.2758 39.793H16.6206V41.4481H18.2758V39.793Z" fill="white"/>
<path d="M21.5863 39.793H19.9312V41.4481H21.5863V39.793Z" fill="white"/>
<path d="M24.8966 39.793H23.2415V41.4481H24.8966V39.793Z" fill="white"/>
<path d="M26.5517 39.793H24.8965V41.4481H26.5517V39.793Z" fill="white"/>
<path d="M28.2069 39.793H26.5518V41.4481H28.2069V39.793Z" fill="white"/>
<path d="M29.862 39.793H28.2068V41.4481H29.862V39.793Z" fill="white"/>
<path d="M31.5172 39.793H29.8621V41.4481H31.5172V39.793Z" fill="white"/>
<path d="M36.4828 39.793H34.8276V41.4481H36.4828V39.793Z" fill="white"/>
<path d="M41.4484 39.793H39.7932V41.4481H41.4484V39.793Z" fill="white"/>
<path d="M43.1034 39.793H41.4482V41.4481H43.1034V39.793Z" fill="white"/>
<path d="M46.4137 39.793H44.7585V41.4481H46.4137V39.793Z" fill="white"/>
<path d="M48.069 39.793H46.4138V41.4481H48.069V39.793Z" fill="white"/>
<path d="M51.3793 39.793H49.7241V41.4481H51.3793V39.793Z" fill="white"/>
<path d="M53.0346 39.793H51.3794V41.4481H53.0346V39.793Z" fill="white"/>
<path d="M57.9999 39.793H56.3447V41.4481H57.9999V39.793Z" fill="white"/>
<path d="M11.6552 41.4482H10V43.1034H11.6552V41.4482Z" fill="white"/>
<path d="M13.3104 41.4482H11.6553V43.1034H13.3104V41.4482Z" fill="white"/>
<path d="M26.5517 41.4482H24.8965V43.1034H26.5517V41.4482Z" fill="white"/>
<path d="M34.8275 41.4482H33.1724V43.1034H34.8275V41.4482Z" fill="white"/>
<path d="M41.4484 41.4482H39.7932V43.1034H41.4484V41.4482Z" fill="white"/>
<path d="M46.4137 41.4482H44.7585V43.1034H46.4137V41.4482Z" fill="white"/>
<path d="M51.3793 41.4482H49.7241V43.1034H51.3793V41.4482Z" fill="white"/>
<path d="M53.0346 41.4482H51.3794V43.1034H53.0346V41.4482Z" fill="white"/>
<path d="M54.6896 41.4482H53.0344V43.1034H54.6896V41.4482Z" fill="white"/>
<path d="M11.6552 43.1035H10V44.7587H11.6552V43.1035Z" fill="white"/>
<path d="M13.3104 43.1035H11.6553V44.7587H13.3104V43.1035Z" fill="white"/>
<path d="M21.5863 43.1035H19.9312V44.7587H21.5863V43.1035Z" fill="white"/>
<path d="M24.8966 43.1035H23.2415V44.7587H24.8966V43.1035Z" fill="white"/>
<path d="M26.5517 43.1035H24.8965V44.7587H26.5517V43.1035Z" fill="white"/>
<path d="M29.862 43.1035H28.2068V44.7587H29.862V43.1035Z" fill="white"/>
<path d="M31.5172 43.1035H29.8621V44.7587H31.5172V43.1035Z" fill="white"/>
<path d="M33.1725 43.1035H31.5173V44.7587H33.1725V43.1035Z" fill="white"/>
<path d="M34.8275 43.1035H33.1724V44.7587H34.8275V43.1035Z" fill="white"/>
<path d="M36.4828 43.1035H34.8276V44.7587H36.4828V43.1035Z" fill="white"/>
<path d="M38.1378 43.1035H36.4827V44.7587H38.1378V43.1035Z" fill="white"/>
<path d="M39.7931 43.1035H38.1379V44.7587H39.7931V43.1035Z" fill="white"/>
<path d="M41.4484 43.1035H39.7932V44.7587H41.4484V43.1035Z" fill="white"/>
<path d="M44.7587 43.1035H43.1035V44.7587H44.7587V43.1035Z" fill="white"/>
<path d="M46.4137 43.1035H44.7585V44.7587H46.4137V43.1035Z" fill="white"/>
<path d="M48.069 43.1035H46.4138V44.7587H48.069V43.1035Z" fill="white"/>
<path d="M49.7243 43.1035H48.0691V44.7587H49.7243V43.1035Z" fill="white"/>
<path d="M51.3793 43.1035H49.7241V44.7587H51.3793V43.1035Z" fill="white"/>
<path d="M53.0346 43.1035H51.3794V44.7587H53.0346V43.1035Z" fill="white"/>
<path d="M54.6896 43.1035H53.0344V44.7587H54.6896V43.1035Z" fill="white"/>
<path d="M56.3449 43.1035H54.6897V44.7587H56.3449V43.1035Z" fill="white"/>
<path d="M24.8966 44.7585H23.2415V46.4137H24.8966V44.7585Z" fill="white"/>
<path d="M29.862 44.7585H28.2068V46.4137H29.862V44.7585Z" fill="white"/>
<path d="M34.8275 44.7585H33.1724V46.4137H34.8275V44.7585Z" fill="white"/>
<path d="M39.7931 44.7585H38.1379V46.4137H39.7931V44.7585Z" fill="white"/>
<path d="M41.4484 44.7585H39.7932V46.4137H41.4484V44.7585Z" fill="white"/>
<path d="M44.7587 44.7585H43.1035V46.4137H44.7587V44.7585Z" fill="white"/>
<path d="M51.3793 44.7585H49.7241V46.4137H51.3793V44.7585Z" fill="white"/>
<path d="M53.0346 44.7585H51.3794V46.4137H53.0346V44.7585Z" fill="white"/>
<path d="M24.8966 46.4138H23.2415V48.069H24.8966V46.4138Z" fill="white"/>
<path d="M28.2069 46.4138H26.5518V48.069H28.2069V46.4138Z" fill="white"/>
<path d="M34.8275 46.4138H33.1724V48.069H34.8275V46.4138Z" fill="white"/>
<path d="M43.1034 46.4138H41.4482V48.069H43.1034V46.4138Z" fill="white"/>
<path d="M44.7587 46.4138H43.1035V48.069H44.7587V46.4138Z" fill="white"/>
<path d="M48.069 46.4138H46.4138V48.069H48.069V46.4138Z" fill="white"/>
<path d="M51.3793 46.4138H49.7241V48.069H51.3793V46.4138Z" fill="white"/>
<path d="M53.0346 46.4138H51.3794V48.069H53.0346V46.4138Z" fill="white"/>
<path d="M24.8966 48.0688H23.2415V49.724H24.8966V48.0688Z" fill="white"/>
<path d="M26.5517 48.0688H24.8965V49.724H26.5517V48.0688Z" fill="white"/>
<path d="M29.862 48.0688H28.2068V49.724H29.862V48.0688Z" fill="white"/>
<path d="M34.8275 48.0688H33.1724V49.724H34.8275V48.0688Z" fill="white"/>
<path d="M36.4828 48.0688H34.8276V49.724H36.4828V48.0688Z" fill="white"/>
<path d="M39.7931 48.0688H38.1379V49.724H39.7931V48.0688Z" fill="white"/>
<path d="M43.1034 48.0688H41.4482V49.724H43.1034V48.0688Z" fill="white"/>
<path d="M44.7587 48.0688H43.1035V49.724H44.7587V48.0688Z" fill="white"/>
<path d="M51.3793 48.0688H49.7241V49.724H51.3793V48.0688Z" fill="white"/>
<path d="M57.9999 48.0688H56.3447V49.724H57.9999V48.0688Z" fill="white"/>
<path d="M24.8966 49.7241H23.2415V51.3793H24.8966V49.7241Z" fill="white"/>
<path d="M31.5172 49.7241H29.8621V51.3793H31.5172V49.7241Z" fill="white"/>
<path d="M33.1725 49.7241H31.5173V51.3793H33.1725V49.7241Z" fill="white"/>
<path d="M34.8275 49.7241H33.1724V51.3793H34.8275V49.7241Z" fill="white"/>
<path d="M39.7931 49.7241H38.1379V51.3793H39.7931V49.7241Z" fill="white"/>
<path d="M41.4484 49.7241H39.7932V51.3793H41.4484V49.7241Z" fill="white"/>
<path d="M43.1034 49.7241H41.4482V51.3793H43.1034V49.7241Z" fill="white"/>
<path d="M44.7587 49.7241H43.1035V51.3793H44.7587V49.7241Z" fill="white"/>
<path d="M46.4137 49.7241H44.7585V51.3793H46.4137V49.7241Z" fill="white"/>
<path d="M48.069 49.7241H46.4138V51.3793H48.069V49.7241Z" fill="white"/>
<path d="M49.7243 49.7241H48.0691V51.3793H49.7243V49.7241Z" fill="white"/>
<path d="M51.3793 49.7241H49.7241V51.3793H51.3793V49.7241Z" fill="white"/>
<path d="M53.0346 49.7241H51.3794V51.3793H53.0346V49.7241Z" fill="white"/>
<path d="M24.8966 51.3794H23.2415V53.0346H24.8966V51.3794Z" fill="white"/>
<path d="M26.5517 51.3794H24.8965V53.0346H26.5517V51.3794Z" fill="white"/>
<path d="M28.2069 51.3794H26.5518V53.0346H28.2069V51.3794Z" fill="white"/>
<path d="M39.7931 51.3794H38.1379V53.0346H39.7931V51.3794Z" fill="white"/>
<path d="M41.4484 51.3794H39.7932V53.0346H41.4484V51.3794Z" fill="white"/>
<path d="M46.4137 51.3794H44.7585V53.0346H46.4137V51.3794Z" fill="white"/>
<path d="M56.3449 51.3794H54.6897V53.0346H56.3449V51.3794Z" fill="white"/>
<path d="M26.5517 53.0344H24.8965V54.6896H26.5517V53.0344Z" fill="white"/>
<path d="M36.4828 53.0344H34.8276V54.6896H36.4828V53.0344Z" fill="white"/>
<path d="M39.7931 53.0344H38.1379V54.6896H39.7931V53.0344Z" fill="white"/>
<path d="M46.4137 53.0344H44.7585V54.6896H46.4137V53.0344Z" fill="white"/>
<path d="M49.7243 53.0344H48.0691V54.6896H49.7243V53.0344Z" fill="white"/>
<path d="M51.3793 53.0344H49.7241V54.6896H51.3793V53.0344Z" fill="white"/>
<path d="M54.6896 53.0344H53.0344V54.6896H54.6896V53.0344Z" fill="white"/>
<path d="M56.3449 53.0344H54.6897V54.6896H56.3449V53.0344Z" fill="white"/>
<path d="M57.9999 53.0344H56.3447V54.6896H57.9999V53.0344Z" fill="white"/>
<path d="M26.5517 54.6897H24.8965V56.3449H26.5517V54.6897Z" fill="white"/>
<path d="M33.1725 54.6897H31.5173V56.3449H33.1725V54.6897Z" fill="white"/>
<path d="M38.1378 54.6897H36.4827V56.3449H38.1378V54.6897Z" fill="white"/>
<path d="M39.7931 54.6897H38.1379V56.3449H39.7931V54.6897Z" fill="white"/>
<path d="M41.4484 54.6897H39.7932V56.3449H41.4484V54.6897Z" fill="white"/>
<path d="M46.4137 54.6897H44.7585V56.3449H46.4137V54.6897Z" fill="white"/>
<path d="M51.3793 54.6897H49.7241V56.3449H51.3793V54.6897Z" fill="white"/>
<path d="M53.0346 54.6897H51.3794V56.3449H53.0346V54.6897Z" fill="white"/>
<path d="M54.6896 54.6897H53.0344V56.3449H54.6896V54.6897Z" fill="white"/>
<path d="M57.9999 54.6897H56.3447V56.3449H57.9999V54.6897Z" fill="white"/>
<path d="M24.8966 56.3447H23.2415V57.9999H24.8966V56.3447Z" fill="white"/>
<path d="M29.862 56.3447H28.2068V57.9999H29.862V56.3447Z" fill="white"/>
<path d="M31.5172 56.3447H29.8621V57.9999H31.5172V56.3447Z" fill="white"/>
<path d="M36.4828 56.3447H34.8276V57.9999H36.4828V56.3447Z" fill="white"/>
<path d="M39.7931 56.3447H38.1379V57.9999H39.7931V56.3447Z" fill="white"/>
<path d="M43.1034 56.3447H41.4482V57.9999H43.1034V56.3447Z" fill="white"/>
<path d="M44.7587 56.3447H43.1035V57.9999H44.7587V56.3447Z" fill="white"/>
<path d="M48.069 56.3447H46.4138V57.9999H48.069V56.3447Z" fill="white"/>
<path d="M49.7243 56.3447H48.0691V57.9999H49.7243V56.3447Z" fill="white"/>
<path d="M19.8483 10H11.7379H10V11.7379V19.8483V21.5862H11.7379H19.8483H21.5862V19.8483V11.7379V10H19.8483ZM19.8483 19.8483H11.7379V11.7379H19.8483V19.8483Z" fill="white"/>
<path d="M56.2621 10H48.1517H46.4138V11.7379V19.8483V21.5862H48.1517H56.2621H58V19.8483V11.7379V10H56.2621ZM56.2621 19.8483H48.1517V11.7379H56.2621V19.8483Z" fill="white"/>
<path d="M19.8483 46.4138H11.7379H10V48.1517V56.2621V58H11.7379H19.8483H21.5862V56.2621V48.1517V46.4138H19.8483ZM19.8483 56.2621H11.7379V48.1517H19.8483V56.2621Z" fill="white"/>
<path d="M18.2758 13.3103H13.3103V18.2758H18.2758V13.3103Z" fill="white"/>
<path d="M54.6896 13.3103H49.7241V18.2758H54.6896V13.3103Z" fill="white"/>
<path d="M18.2758 49.7241H13.3103V54.6896H18.2758V49.7241Z" fill="white"/>
</g>
<defs>
<linearGradient id="paint0_linear_215_121" x1="213.314" y1="65" x2="4.84185" y2="-9.64439" gradientUnits="userSpaceOnUse">
<stop stop-color="#0885DF"/>
<stop offset="1" stop-color="#0885DF" stop-opacity="0"/>
</linearGradient>
</defs>
</svg>
