<svg width="14" height="14" viewBox="0 0 14 14" fill="none" xmlns="http://www.w3.org/2000/svg">
<path d="M1.75 3.5C1.75 3.38397 1.79609 3.27269 1.87814 3.19064C1.96019 3.10859 2.07147 3.0625 2.1875 3.0625H11.8125C11.9285 3.0625 12.0398 3.10859 12.1219 3.19064C12.2039 3.27269 12.25 3.38397 12.25 3.5C12.25 3.61603 12.2039 3.72731 12.1219 3.80936C12.0398 3.89141 11.9285 3.9375 11.8125 3.9375H2.1875C2.07147 3.9375 1.96019 3.89141 1.87814 3.80936C1.79609 3.72731 1.75 3.61603 1.75 3.5ZM11.8125 5.25H2.1875C2.07147 5.25 1.96019 5.29609 1.87814 5.37814C1.79609 5.46019 1.75 5.57147 1.75 5.6875C1.75 5.80353 1.79609 5.91481 1.87814 5.99686C1.96019 6.07891 2.07147 6.125 2.1875 6.125H11.8125C11.9285 6.125 12.0398 6.07891 12.1219 5.99686C12.2039 5.91481 12.25 5.80353 12.25 5.6875C12.25 5.57147 12.2039 5.46019 12.1219 5.37814C12.0398 5.29609 11.9285 5.25 11.8125 5.25ZM11.8125 7.4375H2.1875C2.07147 7.4375 1.96019 7.48359 1.87814 7.56564C1.79609 7.64769 1.75 7.75897 1.75 7.875C1.75 7.99103 1.79609 8.10231 1.87814 8.18436C1.96019 8.26641 2.07147 8.3125 2.1875 8.3125H11.8125C11.9285 8.3125 12.0398 8.26641 12.1219 8.18436C12.2039 8.10231 12.25 7.99103 12.25 7.875C12.25 7.75897 12.2039 7.64769 12.1219 7.56564C12.0398 7.48359 11.9285 7.4375 11.8125 7.4375ZM11.8125 9.625H2.1875C2.07147 9.625 1.96019 9.67109 1.87814 9.75314C1.79609 9.83519 1.75 9.94647 1.75 10.0625C1.75 10.1785 1.79609 10.2898 1.87814 10.3719C1.96019 10.4539 2.07147 10.5 2.1875 10.5H11.8125C11.9285 10.5 12.0398 10.4539 12.1219 10.3719C12.2039 10.2898 12.25 10.1785 12.25 10.0625C12.25 9.94647 12.2039 9.83519 12.1219 9.75314C12.0398 9.67109 11.9285 9.625 11.8125 9.625Z" fill="white" fill-opacity="0.5"/>
</svg>
