<svg width="28" height="29" viewBox="0 0 28 29" fill="none" xmlns="http://www.w3.org/2000/svg">
<rect y="0.5" width="28" height="28" rx="3" fill="#F41515" />
<path d="M14 10.25C13.4561 10.25 12.9244 10.4113 12.4722 10.7135C12.0199 11.0156 11.6675 11.4451 11.4593 11.9476C11.2512 12.4501 11.1967 13.0031 11.3028 13.5365C11.409 14.0699 11.6709 14.5599 12.0555 14.9445C12.4401 15.3291 12.9301 15.5911 13.4635 15.6972C13.9969 15.8033 14.5499 15.7488 15.0524 15.5407C15.5549 15.3325 15.9844 14.9801 16.2865 14.5278C16.5887 14.0756 16.75 13.5439 16.75 13C16.7492 12.2709 16.4592 11.5719 15.9436 11.0564C15.4281 10.5408 14.7291 10.2508 14 10.25ZM14 14.25C13.7528 14.25 13.5111 14.1767 13.3055 14.0393C13.1 13.902 12.9398 13.7068 12.8452 13.4784C12.7505 13.2499 12.7258 12.9986 12.774 12.7561C12.8222 12.5137 12.9413 12.2909 13.1161 12.1161C13.2909 11.9413 13.5137 11.8222 13.7561 11.774C13.9986 11.7258 14.2499 11.7505 14.4784 11.8452C14.7068 11.9398 14.902 12.1 15.0393 12.3055C15.1767 12.5111 15.25 12.7528 15.25 13C15.25 13.3315 15.1183 13.6495 14.8839 13.8839C14.6495 14.1183 14.3315 14.25 14 14.25ZM14 7.25C12.4755 7.25165 11.0139 7.85799 9.93596 8.93596C8.85799 10.0139 8.25165 11.4755 8.25 13C8.25 17.835 13.3525 21.4625 13.57 21.6144C13.696 21.7026 13.8462 21.7499 14 21.7499C14.1538 21.7499 14.304 21.7026 14.43 21.6144C15.3964 20.9021 16.2806 20.0846 17.0662 19.1769C18.8219 17.1606 19.75 15.0231 19.75 13C19.7483 11.4755 19.142 10.0139 18.064 8.93596C16.9861 7.85799 15.5245 7.25165 14 7.25ZM15.9563 18.1694C15.3603 18.8539 14.7058 19.485 14 20.0556C13.2942 19.485 12.6397 18.8539 12.0437 18.1694C11 16.9606 9.75 15.0819 9.75 13C9.75 11.8728 10.1978 10.7918 10.9948 9.9948C11.7918 9.19777 12.8728 8.75 14 8.75C15.1272 8.75 16.2082 9.19777 17.0052 9.9948C17.8022 10.7918 18.25 11.8728 18.25 13C18.25 15.0819 17 16.9606 15.9563 18.1694Z" fill="white" fill-opacity="0.75"/>
</svg>
