<svg width="201" height="30" viewBox="0 0 201 30" fill="none" xmlns="http://www.w3.org/2000/svg">
<rect x="0.5" y="0.5" width="29" height="29" rx="1.5" fill="url(#paint0_linear_82_19)"/>
<rect x="0.5" y="0.5" width="29" height="29" rx="1.5" stroke="#28C76F"/>
<path d="M13.598 20V15.996L14.116 17.368L9.804 10.2H12.212L15.516 15.702H14.13L17.448 10.2H19.674L15.362 17.368L15.866 15.996V20H13.598Z" fill="white"/>
<path d="M41.94 19.5L45.72 11.1H47.256L51.048 19.5H49.416L46.164 11.928H46.788L43.548 19.5H41.94ZM43.68 17.556L44.1 16.332H48.636L49.056 17.556H43.68ZM54.8537 19.584C54.1817 19.584 53.5817 19.444 53.0537 19.164C52.5337 18.876 52.1257 18.484 51.8297 17.988C51.5337 17.492 51.3857 16.928 51.3857 16.296C51.3857 15.656 51.5337 15.092 51.8297 14.604C52.1257 14.108 52.5337 13.72 53.0537 13.44C53.5817 13.16 54.1817 13.02 54.8537 13.02C55.4777 13.02 56.0257 13.148 56.4977 13.404C56.9777 13.652 57.3417 14.02 57.5897 14.508L56.4377 15.18C56.2457 14.876 56.0097 14.652 55.7297 14.508C55.4577 14.364 55.1617 14.292 54.8417 14.292C54.4737 14.292 54.1417 14.372 53.8457 14.532C53.5497 14.692 53.3177 14.924 53.1497 15.228C52.9817 15.524 52.8977 15.88 52.8977 16.296C52.8977 16.712 52.9817 17.072 53.1497 17.376C53.3177 17.672 53.5497 17.9 53.8457 18.06C54.1417 18.22 54.4737 18.3 54.8417 18.3C55.1617 18.3 55.4577 18.228 55.7297 18.084C56.0097 17.94 56.2457 17.716 56.4377 17.412L57.5897 18.084C57.3417 18.564 56.9777 18.936 56.4977 19.2C56.0257 19.456 55.4777 19.584 54.8537 19.584ZM61.8046 19.584C61.0926 19.584 60.4686 19.444 59.9326 19.164C59.4046 18.876 58.9926 18.484 58.6966 17.988C58.4086 17.492 58.2646 16.928 58.2646 16.296C58.2646 15.656 58.4046 15.092 58.6846 14.604C58.9726 14.108 59.3646 13.72 59.8606 13.44C60.3646 13.16 60.9366 13.02 61.5766 13.02C62.2006 13.02 62.7566 13.156 63.2446 13.428C63.7326 13.7 64.1166 14.084 64.3966 14.58C64.6766 15.076 64.8166 15.66 64.8166 16.332C64.8166 16.396 64.8126 16.468 64.8046 16.548C64.8046 16.628 64.8006 16.704 64.7926 16.776H59.4526V15.78H64.0006L63.4126 16.092C63.4206 15.724 63.3446 15.4 63.1846 15.12C63.0246 14.84 62.8046 14.62 62.5246 14.46C62.2526 14.3 61.9366 14.22 61.5766 14.22C61.2086 14.22 60.8846 14.3 60.6046 14.46C60.3326 14.62 60.1166 14.844 59.9566 15.132C59.8046 15.412 59.7286 15.744 59.7286 16.128V16.368C59.7286 16.752 59.8166 17.092 59.9926 17.388C60.1686 17.684 60.4166 17.912 60.7366 18.072C61.0566 18.232 61.4246 18.312 61.8406 18.312C62.2006 18.312 62.5246 18.256 62.8126 18.144C63.1006 18.032 63.3566 17.856 63.5806 17.616L64.3846 18.54C64.0966 18.876 63.7326 19.136 63.2926 19.32C62.8606 19.496 62.3646 19.584 61.8046 19.584ZM66.2574 19.5V13.092H67.7574V19.5H66.2574ZM67.0134 12.036C66.7334 12.036 66.5014 11.948 66.3174 11.772C66.1414 11.596 66.0534 11.384 66.0534 11.136C66.0534 10.88 66.1414 10.668 66.3174 10.5C66.5014 10.324 66.7334 10.236 67.0134 10.236C67.2934 10.236 67.5214 10.32 67.6974 10.488C67.8814 10.648 67.9734 10.852 67.9734 11.1C67.9734 11.364 67.8854 11.588 67.7094 11.772C67.5334 11.948 67.3014 12.036 67.0134 12.036ZM72.1382 19.584C71.4342 19.584 70.8902 19.404 70.5062 19.044C70.1222 18.676 69.9302 18.136 69.9302 17.424V11.676H71.4302V17.388C71.4302 17.692 71.5062 17.928 71.6582 18.096C71.8182 18.264 72.0382 18.348 72.3182 18.348C72.6542 18.348 72.9342 18.26 73.1582 18.084L73.5782 19.152C73.4022 19.296 73.1862 19.404 72.9302 19.476C72.6742 19.548 72.4102 19.584 72.1382 19.584ZM68.8742 14.34V13.14H73.1462V14.34H68.8742ZM78.7601 19.5V18.204L78.6761 17.928V15.66C78.6761 15.22 78.5441 14.88 78.2801 14.64C78.0161 14.392 77.6161 14.268 77.0801 14.268C76.7201 14.268 76.3641 14.324 76.0121 14.436C75.6681 14.548 75.3761 14.704 75.1361 14.904L74.5481 13.812C74.8921 13.548 75.3001 13.352 75.7721 13.224C76.2521 13.088 76.7481 13.02 77.2601 13.02C78.1881 13.02 78.9041 13.244 79.4081 13.692C79.9201 14.132 80.1761 14.816 80.1761 15.744V19.5H78.7601ZM76.7441 19.584C76.2641 19.584 75.8441 19.504 75.4841 19.344C75.1241 19.176 74.8441 18.948 74.6441 18.66C74.4521 18.364 74.3561 18.032 74.3561 17.664C74.3561 17.304 74.4401 16.98 74.6081 16.692C74.7841 16.404 75.0681 16.176 75.4601 16.008C75.8521 15.84 76.3721 15.756 77.0201 15.756H78.8801V16.752H77.1281C76.6161 16.752 76.2721 16.836 76.0961 17.004C75.9201 17.164 75.8321 17.364 75.8321 17.604C75.8321 17.876 75.9401 18.092 76.1561 18.252C76.3721 18.412 76.6721 18.492 77.0561 18.492C77.4241 18.492 77.7521 18.408 78.0401 18.24C78.3361 18.072 78.5481 17.824 78.6761 17.496L78.9281 18.396C78.7841 18.772 78.5241 19.064 78.1481 19.272C77.7801 19.48 77.3121 19.584 76.7441 19.584ZM82.1012 19.5V13.092H83.5292V14.856L83.3612 14.34C83.5532 13.908 83.8532 13.58 84.2612 13.356C84.6772 13.132 85.1932 13.02 85.8092 13.02V14.448C85.7452 14.432 85.6852 14.424 85.6292 14.424C85.5732 14.416 85.5172 14.412 85.4612 14.412C84.8932 14.412 84.4412 14.58 84.1052 14.916C83.7692 15.244 83.6012 15.736 83.6012 16.392V19.5H82.1012Z" fill="white"/>
<rect x="119.5" y="0.5" width="31" height="29" rx="1.5" fill="url(#paint1_linear_82_19)"/>
<rect x="119.5" y="0.5" width="31" height="29" rx="1.5" stroke="#F16262"/>
<path d="M130.162 20V10.2H132.038L137.82 17.256H136.91V10.2H139.15V20H137.288L131.492 12.944H132.402V20H130.162Z" fill="white"/>
<path d="M164.128 19.5V11.1H165.412L170.68 17.568H170.044V11.1H171.592V19.5H170.308L165.04 13.032H165.676V19.5H164.128ZM176.711 19.584C175.999 19.584 175.375 19.444 174.839 19.164C174.311 18.876 173.899 18.484 173.603 17.988C173.315 17.492 173.171 16.928 173.171 16.296C173.171 15.656 173.311 15.092 173.591 14.604C173.879 14.108 174.271 13.72 174.767 13.44C175.271 13.16 175.843 13.02 176.483 13.02C177.107 13.02 177.663 13.156 178.151 13.428C178.639 13.7 179.023 14.084 179.303 14.58C179.583 15.076 179.723 15.66 179.723 16.332C179.723 16.396 179.719 16.468 179.711 16.548C179.711 16.628 179.707 16.704 179.699 16.776H174.359V15.78H178.907L178.319 16.092C178.327 15.724 178.251 15.4 178.091 15.12C177.931 14.84 177.711 14.62 177.431 14.46C177.159 14.3 176.843 14.22 176.483 14.22C176.115 14.22 175.791 14.3 175.511 14.46C175.239 14.62 175.023 14.844 174.863 15.132C174.711 15.412 174.635 15.744 174.635 16.128V16.368C174.635 16.752 174.723 17.092 174.899 17.388C175.075 17.684 175.323 17.912 175.643 18.072C175.963 18.232 176.331 18.312 176.747 18.312C177.107 18.312 177.431 18.256 177.719 18.144C178.007 18.032 178.263 17.856 178.487 17.616L179.291 18.54C179.003 18.876 178.639 19.136 178.199 19.32C177.767 19.496 177.271 19.584 176.711 19.584ZM184.068 21.912C183.476 21.912 182.896 21.832 182.328 21.672C181.768 21.52 181.308 21.296 180.948 21L181.62 19.872C181.9 20.104 182.252 20.288 182.676 20.424C183.108 20.568 183.544 20.64 183.984 20.64C184.688 20.64 185.204 20.476 185.532 20.148C185.86 19.828 186.024 19.344 186.024 18.696V17.556L186.144 16.104L186.096 14.652V13.092H187.524V18.528C187.524 19.688 187.228 20.54 186.636 21.084C186.044 21.636 185.188 21.912 184.068 21.912ZM183.876 19.212C183.268 19.212 182.716 19.084 182.22 18.828C181.732 18.564 181.344 18.2 181.056 17.736C180.776 17.272 180.636 16.728 180.636 16.104C180.636 15.488 180.776 14.948 181.056 14.484C181.344 14.02 181.732 13.66 182.22 13.404C182.716 13.148 183.268 13.02 183.876 13.02C184.42 13.02 184.908 13.128 185.34 13.344C185.772 13.56 186.116 13.896 186.372 14.352C186.636 14.808 186.768 15.392 186.768 16.104C186.768 16.816 186.636 17.404 186.372 17.868C186.116 18.324 185.772 18.664 185.34 18.888C184.908 19.104 184.42 19.212 183.876 19.212ZM184.104 17.94C184.48 17.94 184.816 17.864 185.112 17.712C185.408 17.552 185.636 17.336 185.796 17.064C185.964 16.784 186.048 16.464 186.048 16.104C186.048 15.744 185.964 15.428 185.796 15.156C185.636 14.876 185.408 14.664 185.112 14.52C184.816 14.368 184.48 14.292 184.104 14.292C183.728 14.292 183.388 14.368 183.084 14.52C182.788 14.664 182.556 14.876 182.388 15.156C182.228 15.428 182.148 15.744 182.148 16.104C182.148 16.464 182.228 16.784 182.388 17.064C182.556 17.336 182.788 17.552 183.084 17.712C183.388 17.864 183.728 17.94 184.104 17.94ZM193.444 19.5V18.204L193.36 17.928V15.66C193.36 15.22 193.228 14.88 192.964 14.64C192.7 14.392 192.3 14.268 191.764 14.268C191.404 14.268 191.048 14.324 190.696 14.436C190.352 14.548 190.06 14.704 189.82 14.904L189.232 13.812C189.576 13.548 189.984 13.352 190.456 13.224C190.936 13.088 191.432 13.02 191.944 13.02C192.872 13.02 193.588 13.244 194.092 13.692C194.604 14.132 194.86 14.816 194.86 15.744V19.5H193.444ZM191.428 19.584C190.948 19.584 190.528 19.504 190.168 19.344C189.808 19.176 189.528 18.948 189.328 18.66C189.136 18.364 189.04 18.032 189.04 17.664C189.04 17.304 189.124 16.98 189.292 16.692C189.468 16.404 189.752 16.176 190.144 16.008C190.536 15.84 191.056 15.756 191.704 15.756H193.564V16.752H191.812C191.3 16.752 190.956 16.836 190.78 17.004C190.604 17.164 190.516 17.364 190.516 17.604C190.516 17.876 190.624 18.092 190.84 18.252C191.056 18.412 191.356 18.492 191.74 18.492C192.108 18.492 192.436 18.408 192.724 18.24C193.02 18.072 193.232 17.824 193.36 17.496L193.612 18.396C193.468 18.772 193.208 19.064 192.832 19.272C192.464 19.48 191.996 19.584 191.428 19.584ZM196.785 19.5V13.092H198.213V14.856L198.045 14.34C198.237 13.908 198.537 13.58 198.945 13.356C199.361 13.132 199.877 13.02 200.493 13.02V14.448C200.429 14.432 200.369 14.424 200.313 14.424C200.257 14.416 200.201 14.412 200.145 14.412C199.577 14.412 199.125 14.58 198.789 14.916C198.453 15.244 198.285 15.736 198.285 16.392V19.5H196.785Z" fill="white"/>
<defs>
<linearGradient id="paint0_linear_82_19" x1="30" y1="8.31347e-07" x2="-0.981078" y2="28.9501" gradientUnits="userSpaceOnUse">
<stop stop-color="#28C76F"/>
<stop offset="1" stop-color="#28C76F" stop-opacity="0.35"/>
</linearGradient>
<linearGradient id="paint1_linear_82_19" x1="151" y1="8.31347e-07" x2="119.948" y2="30.9509" gradientUnits="userSpaceOnUse">
<stop stop-color="#F16262"/>
<stop offset="1" stop-color="#F16262" stop-opacity="0"/>
</linearGradient>
</defs>
</svg>
